<?xml version="1.0" encoding="UTF-8" standalone="no"?>
<!DOCTYPE svg PUBLIC "-//W3C//DTD SVG 1.1//EN"
 "http://www.w3.org/Graphics/SVG/1.1/DTD/svg11.dtd">
<!-- Generated by graphviz version 12.2.1 (20241206.2353)
 -->
<!-- Title: workspace_crates Pages: 1 -->
<svg width="969pt" height="975pt"
 viewBox="0.00 0.00 968.50 974.57" xmlns="http://www.w3.org/2000/svg" xmlns:xlink="http://www.w3.org/1999/xlink">
<g id="graph0" class="graph" transform="scale(1 1) rotate(0) translate(4 970.57)">
<title>workspace_crates</title>
<polygon fill="white" stroke="none" points="-4,4 -4,-970.57 964.5,-970.57 964.5,4 -4,4"/>
<!-- algebra -->
<g id="node1" class="node">
<title>algebra</title>
<path fill="none" stroke="black" d="M45.62,-383.57C45.62,-383.57 13.88,-383.57 13.88,-383.57 7.88,-383.57 1.88,-377.57 1.88,-371.57 1.88,-371.57 1.88,-359.57 1.88,-359.57 1.88,-353.57 7.88,-347.57 13.88,-347.57 13.88,-347.57 45.62,-347.57 45.62,-347.57 51.62,-347.57 57.62,-353.57 57.62,-359.57 57.62,-359.57 57.62,-371.57 57.62,-371.57 57.62,-377.57 51.62,-383.57 45.62,-383.57"/>
<text text-anchor="middle" x="29.75" y="-360.52" font-family="Times,serif" font-size="14.00">algebra</text>
</g>
<!-- box&#45;ffi -->
<g id="node2" class="node">
<title>box&#45;ffi</title>
<path fill="none" stroke="black" d="M257.5,-391.57C257.5,-391.57 227.5,-391.57 227.5,-391.57 221.5,-391.57 215.5,-385.57 215.5,-379.57 215.5,-379.57 215.5,-367.57 215.5,-367.57 215.5,-361.57 221.5,-355.57 227.5,-355.57 227.5,-355.57 257.5,-355.57 257.5,-355.57 263.5,-355.57 269.5,-361.57 269.5,-367.57 269.5,-367.57 269.5,-379.57 269.5,-379.57 269.5,-385.57 263.5,-391.57 257.5,-391.57"/>
<text text-anchor="middle" x="242.5" y="-368.52" font-family="Times,serif" font-size="14.00">box&#45;ffi</text>
</g>
<!-- boxes -->
<g id="node3" class="node">
<title>boxes</title>
<path fill="none" stroke="black" d="M674.75,-828.57C674.75,-828.57 644.75,-828.57 644.75,-828.57 638.75,-828.57 632.75,-822.57 632.75,-816.57 632.75,-816.57 632.75,-804.57 632.75,-804.57 632.75,-798.57 638.75,-792.57 644.75,-792.57 644.75,-792.57 674.75,-792.57 674.75,-792.57 680.75,-792.57 686.75,-798.57 686.75,-804.57 686.75,-804.57 686.75,-816.57 686.75,-816.57 686.75,-822.57 680.75,-828.57 674.75,-828.57"/>
<text text-anchor="middle" x="659.75" y="-805.52" font-family="Times,serif" font-size="14.00">boxes</text>
</g>
<!-- box&#45;ffi&#45;&gt;boxes -->
<g id="edge1" class="edge">
<title>box&#45;ffi&#45;&gt;boxes</title>
<path fill="none" stroke="black" d="M252.94,-391.87C259.48,-404.79 268.23,-422.58 275.25,-438.57 292.9,-478.77 291.97,-491.12 311.25,-530.57 335.99,-581.19 356.24,-586.8 376,-639.57 407.22,-722.92 357.02,-766.57 412,-836.57 464.2,-903.03 519.48,-918.9 596.25,-883.57 616.33,-874.32 632.37,-855.09 643.17,-838.69"/>
<polygon fill="black" stroke="black" points="646.11,-840.58 648.41,-830.24 640.16,-836.89 646.11,-840.58"/>
</g>
<!-- codegen -->
<g id="node4" class="node">
<title>codegen</title>
<path fill="none" stroke="black" d="M465.12,-196.57C465.12,-196.57 428.12,-196.57 428.12,-196.57 422.12,-196.57 416.12,-190.57 416.12,-184.57 416.12,-184.57 416.12,-172.57 416.12,-172.57 416.12,-166.57 422.12,-160.57 428.12,-160.57 428.12,-160.57 465.12,-160.57 465.12,-160.57 471.12,-160.57 477.12,-166.57 477.12,-172.57 477.12,-172.57 477.12,-184.57 477.12,-184.57 477.12,-190.57 471.12,-196.57 465.12,-196.57"/>
<text text-anchor="middle" x="446.62" y="-173.52" font-family="Times,serif" font-size="14.00">codegen</text>
</g>
<!-- box&#45;ffi&#45;&gt;codegen -->
<g id="edge2" class="edge">
<title>box&#45;ffi&#45;&gt;codegen</title>
<path fill="none" stroke="black" d="M253.95,-355.28C266.1,-334.94 287.55,-301.75 311.25,-277.57 315.53,-273.2 372.52,-231.6 410.9,-203.73"/>
<polygon fill="black" stroke="black" points="412.95,-206.57 418.98,-197.86 408.83,-200.9 412.95,-206.57"/>
</g>
<!-- compiler -->
<g id="node5" class="node">
<title>compiler</title>
<path fill="none" stroke="black" d="M364,-486.57C364,-486.57 323.25,-486.57 323.25,-486.57 317.25,-486.57 311.25,-480.57 311.25,-474.57 311.25,-474.57 311.25,-462.57 311.25,-462.57 311.25,-456.57 317.25,-450.57 323.25,-450.57 323.25,-450.57 364,-450.57 364,-450.57 370,-450.57 376,-456.57 376,-462.57 376,-462.57 376,-474.57 376,-474.57 376,-480.57 370,-486.57 364,-486.57"/>
<text text-anchor="middle" x="343.62" y="-463.52" font-family="Times,serif" font-size="14.00">compiler</text>
</g>
<!-- box&#45;ffi&#45;&gt;compiler -->
<g id="edge3" class="edge">
<title>box&#45;ffi&#45;&gt;compiler</title>
<path fill="none" stroke="black" d="M262.61,-391.88C277.56,-406.21 298.54,-426.31 315.27,-442.35"/>
<polygon fill="black" stroke="black" points="312.84,-444.87 322.48,-449.26 317.68,-439.81 312.84,-444.87"/>
</g>
<!-- fir -->
<g id="node12" class="node">
<title>fir</title>
<path fill="none" stroke="black" d="M571.75,-65.57C571.75,-65.57 541.75,-65.57 541.75,-65.57 535.75,-65.57 529.75,-59.57 529.75,-53.57 529.75,-53.57 529.75,-41.57 529.75,-41.57 529.75,-35.57 535.75,-29.57 541.75,-29.57 541.75,-29.57 571.75,-29.57 571.75,-29.57 577.75,-29.57 583.75,-35.57 583.75,-41.57 583.75,-41.57 583.75,-53.57 583.75,-53.57 583.75,-59.57 577.75,-65.57 571.75,-65.57"/>
<text text-anchor="middle" x="556.75" y="-42.52" font-family="Times,serif" font-size="14.00">fir</text>
</g>
<!-- box&#45;ffi&#45;&gt;fir -->
<g id="edge4" class="edge">
<title>box&#45;ffi&#45;&gt;fir</title>
<path fill="none" stroke="black" d="M247.42,-355.13C255.2,-321.76 275.03,-250.2 311.25,-200.57 364.69,-127.34 464.81,-81.17 518.87,-60.41"/>
<polygon fill="black" stroke="black" points="519.81,-63.79 527.94,-57.01 517.35,-57.24 519.81,-63.79"/>
</g>
<!-- propagate -->
<g id="node19" class="node">
<title>propagate</title>
<path fill="none" stroke="black" d="M579.38,-592.57C579.38,-592.57 534.12,-592.57 534.12,-592.57 528.12,-592.57 522.12,-586.57 522.12,-580.57 522.12,-580.57 522.12,-568.57 522.12,-568.57 522.12,-562.57 528.12,-556.57 534.12,-556.57 534.12,-556.57 579.38,-556.57 579.38,-556.57 585.38,-556.57 591.38,-562.57 591.38,-568.57 591.38,-568.57 591.38,-580.57 591.38,-580.57 591.38,-586.57 585.38,-592.57 579.38,-592.57"/>
<text text-anchor="middle" x="556.75" y="-569.52" font-family="Times,serif" font-size="14.00">propagate</text>
</g>
<!-- box&#45;ffi&#45;&gt;propagate -->
<g id="edge5" class="edge">
<title>box&#45;ffi&#45;&gt;propagate</title>
<path fill="none" stroke="black" d="M252.1,-391.91C266.4,-421.9 295.11,-479.67 311.25,-495.57 365.43,-548.94 455.88,-566.26 510.27,-571.88"/>
<polygon fill="black" stroke="black" points="509.84,-575.35 520.12,-572.79 510.49,-568.38 509.84,-575.35"/>
</g>
<!-- tlib -->
<g id="node22" class="node">
<title>tlib</title>
<path fill="none" stroke="black" d="M948.5,-463.57C948.5,-463.57 918.5,-463.57 918.5,-463.57 912.5,-463.57 906.5,-457.57 906.5,-451.57 906.5,-451.57 906.5,-439.57 906.5,-439.57 906.5,-433.57 912.5,-427.57 918.5,-427.57 918.5,-427.57 948.5,-427.57 948.5,-427.57 954.5,-427.57 960.5,-433.57 960.5,-439.57 960.5,-439.57 960.5,-451.57 960.5,-451.57 960.5,-457.57 954.5,-463.57 948.5,-463.57"/>
<text text-anchor="middle" x="933.5" y="-440.52" font-family="Times,serif" font-size="14.00">tlib</text>
</g>
<!-- box&#45;ffi&#45;&gt;tlib -->
<g id="edge6" class="edge">
<title>box&#45;ffi&#45;&gt;tlib</title>
<path fill="none" stroke="black" d="M244.2,-355.32C246.72,-312.35 258.27,-203.15 311.25,-133.57 411.33,-2.12 493.54,-1.57 658.75,-1.57 658.75,-1.57 658.75,-1.57 752.88,-1.57 806.72,-1.57 834.25,9.24 870.5,-30.57 922.04,-87.16 930.74,-330.53 932.21,-415.86"/>
<polygon fill="black" stroke="black" points="928.7,-415.8 932.35,-425.75 935.7,-415.7 928.7,-415.8"/>
</g>
<!-- transform -->
<g id="node23" class="node">
<title>transform</title>
<path fill="none" stroke="black" d="M469.25,-288.57C469.25,-288.57 424,-288.57 424,-288.57 418,-288.57 412,-282.57 412,-276.57 412,-276.57 412,-264.57 412,-264.57 412,-258.57 418,-252.57 424,-252.57 424,-252.57 469.25,-252.57 469.25,-252.57 475.25,-252.57 481.25,-258.57 481.25,-264.57 481.25,-264.57 481.25,-276.57 481.25,-276.57 481.25,-282.57 475.25,-288.57 469.25,-288.57"/>
<text text-anchor="middle" x="446.62" y="-265.52" font-family="Times,serif" font-size="14.00">transform</text>
</g>
<!-- box&#45;ffi&#45;&gt;transform -->
<g id="edge7" class="edge">
<title>box&#45;ffi&#45;&gt;transform</title>
<path fill="none" stroke="black" d="M269.92,-360.1C303.39,-343.04 361.54,-313.41 401.72,-292.94"/>
<polygon fill="black" stroke="black" points="403.11,-296.16 410.43,-288.5 399.93,-289.92 403.11,-296.16"/>
</g>
<!-- ui -->
<g id="node24" class="node">
<title>ui</title>
<path fill="none" stroke="black" d="M858.5,-333.57C858.5,-333.57 828.5,-333.57 828.5,-333.57 822.5,-333.57 816.5,-327.57 816.5,-321.57 816.5,-321.57 816.5,-309.57 816.5,-309.57 816.5,-303.57 822.5,-297.57 828.5,-297.57 828.5,-297.57 858.5,-297.57 858.5,-297.57 864.5,-297.57 870.5,-303.57 870.5,-309.57 870.5,-309.57 870.5,-321.57 870.5,-321.57 870.5,-327.57 864.5,-333.57 858.5,-333.57"/>
<text text-anchor="middle" x="843.5" y="-310.52" font-family="Times,serif" font-size="14.00">ui</text>
</g>
<!-- box&#45;ffi&#45;&gt;ui -->
<g id="edge8" class="edge">
<title>box&#45;ffi&#45;&gt;ui</title>
<path fill="none" stroke="black" d="M248.6,-355.36C257.49,-326.09 278.12,-267.87 311.25,-228.57 333.83,-201.77 348.47,-205.25 376,-183.57 392.82,-170.32 392.03,-159.27 412,-151.57 564.81,-92.63 646.49,-60.41 780.5,-154.57 823.18,-184.55 836.48,-248.25 840.63,-285.91"/>
<polygon fill="black" stroke="black" points="837.12,-286.01 841.54,-295.64 844.09,-285.36 837.12,-286.01"/>
</g>
<!-- utils -->
<g id="node25" class="node">
<title>utils</title>
<path fill="none" stroke="black" d="M358.62,-684.57C358.62,-684.57 328.62,-684.57 328.62,-684.57 322.62,-684.57 316.62,-678.57 316.62,-672.57 316.62,-672.57 316.62,-660.57 316.62,-660.57 316.62,-654.57 322.62,-648.57 328.62,-648.57 328.62,-648.57 358.62,-648.57 358.62,-648.57 364.62,-648.57 370.62,-654.57 370.62,-660.57 370.62,-660.57 370.62,-672.57 370.62,-672.57 370.62,-678.57 364.62,-684.57 358.62,-684.57"/>
<text text-anchor="middle" x="343.62" y="-661.52" font-family="Times,serif" font-size="14.00">utils</text>
</g>
<!-- box&#45;ffi&#45;&gt;utils -->
<g id="edge9" class="edge">
<title>box&#45;ffi&#45;&gt;utils</title>
<path fill="none" stroke="black" d="M254.22,-392.05C261.16,-404.76 269.87,-422.22 275.25,-438.57 302.94,-522.69 270.46,-555.95 311.25,-634.57 312.11,-636.23 313.09,-637.86 314.15,-639.45"/>
<polygon fill="black" stroke="black" points="311.09,-641.23 320.04,-646.9 316.59,-636.89 311.09,-641.23"/>
</g>
<!-- boxes&#45;&gt;tlib -->
<g id="edge10" class="edge">
<title>boxes&#45;&gt;tlib</title>
<path fill="none" stroke="black" d="M687.2,-814.21C731.65,-818.71 821.29,-820.57 870.5,-771.57 912.18,-730.06 926.81,-547.37 931.03,-475.12"/>
<polygon fill="black" stroke="black" points="934.52,-475.43 931.58,-465.25 927.53,-475.04 934.52,-475.43"/>
</g>
<!-- codegen&#45;&gt;fir -->
<g id="edge11" class="edge">
<title>codegen&#45;&gt;fir</title>
<path fill="none" stroke="black" d="M458.39,-160.34C471.08,-139.63 493.46,-105.36 517.25,-79.57 519.16,-77.5 521.2,-75.44 523.31,-73.43"/>
<polygon fill="black" stroke="black" points="525.43,-76.22 530.53,-66.93 520.75,-71.02 525.43,-76.22"/>
</g>
<!-- foreign&#45;call -->
<g id="node13" class="node">
<title>foreign&#45;call</title>
<path fill="none" stroke="black" d="M584.25,-195.57C584.25,-195.57 529.25,-195.57 529.25,-195.57 523.25,-195.57 517.25,-189.57 517.25,-183.57 517.25,-183.57 517.25,-171.57 517.25,-171.57 517.25,-165.57 523.25,-159.57 529.25,-159.57 529.25,-159.57 584.25,-159.57 584.25,-159.57 590.25,-159.57 596.25,-165.57 596.25,-171.57 596.25,-171.57 596.25,-183.57 596.25,-183.57 596.25,-189.57 590.25,-195.57 584.25,-195.57"/>
<text text-anchor="middle" x="556.75" y="-172.52" font-family="Times,serif" font-size="14.00">foreign&#45;call</text>
</g>
<!-- codegen&#45;&gt;foreign&#45;call -->
<g id="edge12" class="edge">
<title>codegen&#45;&gt;foreign&#45;call</title>
<path fill="none" stroke="black" d="M477.46,-178.29C486.26,-178.21 496.15,-178.12 505.86,-178.03"/>
<polygon fill="black" stroke="black" points="505.61,-181.53 515.58,-177.94 505.55,-174.53 505.61,-181.53"/>
</g>
<!-- compiler&#45;&gt;boxes -->
<g id="edge13" class="edge">
<title>compiler&#45;&gt;boxes</title>
<path fill="none" stroke="black" d="M349.01,-486.85C361.77,-539.69 398.84,-689.97 412,-708.57 445.03,-755.24 464.67,-760.08 517.25,-782.57 550.74,-796.89 591.86,-803.97 621.12,-807.42"/>
<polygon fill="black" stroke="black" points="620.67,-810.89 630.98,-808.49 621.42,-803.93 620.67,-810.89"/>
</g>
<!-- compiler&#45;&gt;codegen -->
<g id="edge14" class="edge">
<title>compiler&#45;&gt;codegen</title>
<path fill="none" stroke="black" d="M349.22,-450.44C363.89,-392.6 408.85,-215.9 412,-210.57 412.98,-208.9 414.08,-207.26 415.26,-205.66"/>
<polygon fill="black" stroke="black" points="417.85,-208.01 421.72,-198.15 412.54,-203.45 417.85,-208.01"/>
</g>
<!-- draw -->
<g id="node8" class="node">
<title>draw</title>
<path fill="none" stroke="black" d="M571.75,-966.57C571.75,-966.57 541.75,-966.57 541.75,-966.57 535.75,-966.57 529.75,-960.57 529.75,-954.57 529.75,-954.57 529.75,-942.57 529.75,-942.57 529.75,-936.57 535.75,-930.57 541.75,-930.57 541.75,-930.57 571.75,-930.57 571.75,-930.57 577.75,-930.57 583.75,-936.57 583.75,-942.57 583.75,-942.57 583.75,-954.57 583.75,-954.57 583.75,-960.57 577.75,-966.57 571.75,-966.57"/>
<text text-anchor="middle" x="556.75" y="-943.52" font-family="Times,serif" font-size="14.00">draw</text>
</g>
<!-- compiler&#45;&gt;draw -->
<g id="edge15" class="edge">
<title>compiler&#45;&gt;draw</title>
<path fill="none" stroke="black" d="M348.02,-487.04C353.78,-518.39 365.83,-584.05 376,-639.57 392.03,-727.12 365.87,-760.45 412,-836.57 437.78,-879.11 486.12,-911.64 519.58,-930.41"/>
<polygon fill="black" stroke="black" points="517.66,-933.35 528.12,-935.07 521.02,-927.21 517.66,-933.35"/>
</g>
<!-- errors -->
<g id="node9" class="node">
<title>errors</title>
<path fill="none" stroke="black" d="M674.75,-691.57C674.75,-691.57 644.75,-691.57 644.75,-691.57 638.75,-691.57 632.75,-685.57 632.75,-679.57 632.75,-679.57 632.75,-667.57 632.75,-667.57 632.75,-661.57 638.75,-655.57 644.75,-655.57 644.75,-655.57 674.75,-655.57 674.75,-655.57 680.75,-655.57 686.75,-661.57 686.75,-667.57 686.75,-667.57 686.75,-679.57 686.75,-679.57 686.75,-685.57 680.75,-691.57 674.75,-691.57"/>
<text text-anchor="middle" x="659.75" y="-668.52" font-family="Times,serif" font-size="14.00">errors</text>
</g>
<!-- compiler&#45;&gt;errors -->
<g id="edge16" class="edge">
<title>compiler&#45;&gt;errors</title>
<path fill="none" stroke="black" d="M356.51,-486.85C368.75,-504.61 389.23,-531.47 412,-549.57 478.49,-602.38 571.08,-641.47 621.83,-660.54"/>
<polygon fill="black" stroke="black" points="620.59,-663.81 631.18,-664 623.02,-657.25 620.59,-663.81"/>
</g>
<!-- eval -->
<g id="node10" class="node">
<title>eval</title>
<path fill="none" stroke="black" d="M461.62,-699.57C461.62,-699.57 431.62,-699.57 431.62,-699.57 425.62,-699.57 419.62,-693.57 419.62,-687.57 419.62,-687.57 419.62,-675.57 419.62,-675.57 419.62,-669.57 425.62,-663.57 431.62,-663.57 431.62,-663.57 461.62,-663.57 461.62,-663.57 467.62,-663.57 473.62,-669.57 473.62,-675.57 473.62,-675.57 473.62,-687.57 473.62,-687.57 473.62,-693.57 467.62,-699.57 461.62,-699.57"/>
<text text-anchor="middle" x="446.62" y="-676.52" font-family="Times,serif" font-size="14.00">eval</text>
</g>
<!-- compiler&#45;&gt;eval -->
<g id="edge17" class="edge">
<title>compiler&#45;&gt;eval</title>
<path fill="none" stroke="black" d="M350.47,-486.89C360.81,-518.18 383.87,-583.48 412,-634.57 415.71,-641.3 420.2,-648.21 424.69,-654.59"/>
<polygon fill="black" stroke="black" points="421.55,-656.22 430.27,-662.25 427.21,-652.1 421.55,-656.22"/>
</g>
<!-- compiler&#45;&gt;fir -->
<g id="edge18" class="edge">
<title>compiler&#45;&gt;fir</title>
<path fill="none" stroke="black" d="M352.18,-450.08C358.93,-433.19 368.83,-407.44 376,-384.57 395.34,-322.85 372.37,-294.68 412,-243.57 433.51,-215.82 459.35,-233 481.25,-205.57 517.58,-160.05 485.44,-128.35 517.25,-79.57 518.6,-77.5 520.13,-75.49 521.77,-73.56"/>
<polygon fill="black" stroke="black" points="524,-76.29 528.51,-66.7 519.01,-71.38 524,-76.29"/>
</g>
<!-- parser -->
<g id="node18" class="node">
<title>parser</title>
<path fill="none" stroke="black" d="M571.75,-874.57C571.75,-874.57 541.75,-874.57 541.75,-874.57 535.75,-874.57 529.75,-868.57 529.75,-862.57 529.75,-862.57 529.75,-850.57 529.75,-850.57 529.75,-844.57 535.75,-838.57 541.75,-838.57 541.75,-838.57 571.75,-838.57 571.75,-838.57 577.75,-838.57 583.75,-844.57 583.75,-850.57 583.75,-850.57 583.75,-862.57 583.75,-862.57 583.75,-868.57 577.75,-874.57 571.75,-874.57"/>
<text text-anchor="middle" x="556.75" y="-851.52" font-family="Times,serif" font-size="14.00">parser</text>
</g>
<!-- compiler&#45;&gt;parser -->
<g id="edge19" class="edge">
<title>compiler&#45;&gt;parser</title>
<path fill="none" stroke="black" d="M349.03,-486.82C355.34,-513.18 367.15,-563.49 376,-606.57 393.82,-693.32 355.18,-734.63 412,-802.57 438.39,-834.12 485.2,-847.25 518.21,-852.71"/>
<polygon fill="black" stroke="black" points="517.36,-856.12 527.77,-854.12 518.38,-849.2 517.36,-856.12"/>
</g>
<!-- compiler&#45;&gt;propagate -->
<g id="edge20" class="edge">
<title>compiler&#45;&gt;propagate</title>
<path fill="none" stroke="black" d="M365.03,-486.91C377.84,-497.75 395.09,-511.14 412,-520.57 443.49,-538.11 481.82,-552.19 510.98,-561.56"/>
<polygon fill="black" stroke="black" points="509.64,-564.81 520.23,-564.47 511.74,-558.13 509.64,-564.81"/>
</g>
<!-- signals -->
<g id="node20" class="node">
<title>signals</title>
<path fill="none" stroke="black" d="M766.88,-463.57C766.88,-463.57 736.88,-463.57 736.88,-463.57 730.88,-463.57 724.88,-457.57 724.88,-451.57 724.88,-451.57 724.88,-439.57 724.88,-439.57 724.88,-433.57 730.88,-427.57 736.88,-427.57 736.88,-427.57 766.88,-427.57 766.88,-427.57 772.88,-427.57 778.88,-433.57 778.88,-439.57 778.88,-439.57 778.88,-451.57 778.88,-451.57 778.88,-457.57 772.88,-463.57 766.88,-463.57"/>
<text text-anchor="middle" x="751.88" y="-440.52" font-family="Times,serif" font-size="14.00">signals</text>
</g>
<!-- compiler&#45;&gt;signals -->
<g id="edge21" class="edge">
<title>compiler&#45;&gt;signals</title>
<path fill="none" stroke="black" d="M376.16,-466.78C449.93,-462.6 633.48,-452.21 713.07,-447.71"/>
<polygon fill="black" stroke="black" points="713.18,-451.21 722.96,-447.15 712.78,-444.22 713.18,-451.21"/>
</g>
<!-- sigtype -->
<g id="node21" class="node">
<title>sigtype</title>
<path fill="none" stroke="black" d="M675.25,-371.57C675.25,-371.57 644.25,-371.57 644.25,-371.57 638.25,-371.57 632.25,-365.57 632.25,-359.57 632.25,-359.57 632.25,-347.57 632.25,-347.57 632.25,-341.57 638.25,-335.57 644.25,-335.57 644.25,-335.57 675.25,-335.57 675.25,-335.57 681.25,-335.57 687.25,-341.57 687.25,-347.57 687.25,-347.57 687.25,-359.57 687.25,-359.57 687.25,-365.57 681.25,-371.57 675.25,-371.57"/>
<text text-anchor="middle" x="659.75" y="-348.52" font-family="Times,serif" font-size="14.00">sigtype</text>
</g>
<!-- compiler&#45;&gt;sigtype -->
<g id="edge22" class="edge">
<title>compiler&#45;&gt;sigtype</title>
<path fill="none" stroke="black" d="M376.47,-456.91C434.89,-435.52 558.88,-390.13 621.26,-367.29"/>
<polygon fill="black" stroke="black" points="622.19,-370.68 630.38,-363.95 619.78,-364.1 622.19,-370.68"/>
</g>
<!-- compiler&#45;&gt;tlib -->
<g id="edge23" class="edge">
<title>compiler&#45;&gt;tlib</title>
<path fill="none" stroke="black" d="M376.43,-473.12C387.65,-474.52 400.36,-475.88 412,-476.57 442.72,-478.38 450.47,-476.77 481.25,-476.57 614.26,-475.68 647.9,-482.98 780.5,-472.57 820.79,-469.4 830.76,-466.91 870.5,-459.57 878.47,-458.09 886.96,-456.31 895.03,-454.53"/>
<polygon fill="black" stroke="black" points="895.59,-457.99 904.57,-452.36 894.04,-451.16 895.59,-457.99"/>
</g>
<!-- compiler&#45;&gt;transform -->
<g id="edge24" class="edge">
<title>compiler&#45;&gt;transform</title>
<path fill="none" stroke="black" d="M350.96,-450.21C364.15,-412.54 394.76,-327.89 412,-302.57 413.22,-300.77 414.57,-298.99 415.98,-297.26"/>
<polygon fill="black" stroke="black" points="418.37,-299.83 422.52,-290.08 413.2,-295.11 418.37,-299.83"/>
</g>
<!-- compiler&#45;&gt;ui -->
<g id="edge25" class="edge">
<title>compiler&#45;&gt;ui</title>
<path fill="none" stroke="black" d="M354.51,-450.09C377.07,-410.14 436.69,-316.43 517.25,-280.57 624.14,-232.98 667.71,-247.47 780.5,-278.57 790.33,-281.28 800.18,-286 809.04,-291.19"/>
<polygon fill="black" stroke="black" points="806.95,-294.01 817.28,-296.35 810.67,-288.08 806.95,-294.01"/>
</g>
<!-- cranelift&#45;ffi -->
<g id="node6" class="node">
<title>cranelift&#45;ffi</title>
<path fill="none" stroke="black" d="M161.75,-437.57C161.75,-437.57 107.5,-437.57 107.5,-437.57 101.5,-437.57 95.5,-431.57 95.5,-425.57 95.5,-425.57 95.5,-413.57 95.5,-413.57 95.5,-407.57 101.5,-401.57 107.5,-401.57 107.5,-401.57 161.75,-401.57 161.75,-401.57 167.75,-401.57 173.75,-407.57 173.75,-413.57 173.75,-413.57 173.75,-425.57 173.75,-425.57 173.75,-431.57 167.75,-437.57 161.75,-437.57"/>
<text text-anchor="middle" x="134.62" y="-414.52" font-family="Times,serif" font-size="14.00">cranelift&#45;ffi</text>
</g>
<!-- cranelift&#45;ffi&#45;&gt;box&#45;ffi -->
<g id="edge26" class="edge">
<title>cranelift&#45;ffi&#45;&gt;box&#45;ffi</title>
<path fill="none" stroke="black" d="M174.15,-402.83C184.13,-398.49 194.86,-393.83 204.75,-389.53"/>
<polygon fill="black" stroke="black" points="205.92,-392.84 213.7,-385.64 203.13,-386.42 205.92,-392.84"/>
</g>
<!-- cranelift&#45;ffi&#45;&gt;codegen -->
<g id="edge27" class="edge">
<title>cranelift&#45;ffi&#45;&gt;codegen</title>
<path fill="none" stroke="black" d="M147.72,-401.27C173.48,-363.64 237.48,-276.94 311.25,-227.57 339.82,-208.45 376.78,-195.68 404.71,-187.98"/>
<polygon fill="black" stroke="black" points="405.45,-191.4 414.23,-185.47 403.66,-184.64 405.45,-191.4"/>
</g>
<!-- cranelift&#45;ffi&#45;&gt;compiler -->
<g id="edge28" class="edge">
<title>cranelift&#45;ffi&#45;&gt;compiler</title>
<path fill="none" stroke="black" d="M174.15,-421.86C202.53,-424.26 241.84,-429.06 275.25,-438.57 283.56,-440.93 292.16,-444.13 300.33,-447.56"/>
<polygon fill="black" stroke="black" points="298.82,-450.72 309.38,-451.54 301.64,-444.31 298.82,-450.72"/>
</g>
<!-- cranelift&#45;ffi&#45;&gt;fir -->
<g id="edge29" class="edge">
<title>cranelift&#45;ffi&#45;&gt;fir</title>
<path fill="none" stroke="black" d="M137.76,-401.45C145.15,-341.44 171.29,-150.37 209.75,-103.57 284.93,-12.08 445.73,-27.32 518.55,-39.89"/>
<polygon fill="black" stroke="black" points="517.5,-43.26 527.97,-41.6 518.75,-36.37 517.5,-43.26"/>
</g>
<!-- interp&#45;ffi -->
<g id="node15" class="node">
<title>interp&#45;ffi</title>
<path fill="none" stroke="black" d="M262.88,-483.57C262.88,-483.57 222.12,-483.57 222.12,-483.57 216.12,-483.57 210.12,-477.57 210.12,-471.57 210.12,-471.57 210.12,-459.57 210.12,-459.57 210.12,-453.57 216.12,-447.57 222.12,-447.57 222.12,-447.57 262.88,-447.57 262.88,-447.57 268.88,-447.57 274.88,-453.57 274.88,-459.57 274.88,-459.57 274.88,-471.57 274.88,-471.57 274.88,-477.57 268.88,-483.57 262.88,-483.57"/>
<text text-anchor="middle" x="242.5" y="-460.52" font-family="Times,serif" font-size="14.00">interp&#45;ffi</text>
</g>
<!-- cranelift&#45;ffi&#45;&gt;interp&#45;ffi -->
<g id="edge30" class="edge">
<title>cranelift&#45;ffi&#45;&gt;interp&#45;ffi</title>
<path fill="none" stroke="black" d="M174.15,-436.3C182.38,-439.88 191.11,-443.67 199.47,-447.3"/>
<polygon fill="black" stroke="black" points="197.83,-450.41 208.4,-451.18 200.62,-443.99 197.83,-450.41"/>
</g>
<!-- cranelift&#45;ffi&#45;&gt;utils -->
<g id="edge31" class="edge">
<title>cranelift&#45;ffi&#45;&gt;utils</title>
<path fill="none" stroke="black" d="M139.11,-437.97C146.5,-472.65 166.75,-548.41 209.75,-595.57 235.85,-624.18 276.21,-643.45 305.61,-654.61"/>
<polygon fill="black" stroke="black" points="304.27,-657.85 314.86,-657.97 306.66,-651.27 304.27,-657.85"/>
</g>
<!-- doc -->
<g id="node7" class="node">
<title>doc</title>
<path fill="none" stroke="black" d="M44.75,-491.57C44.75,-491.57 14.75,-491.57 14.75,-491.57 8.75,-491.57 2.75,-485.57 2.75,-479.57 2.75,-479.57 2.75,-467.57 2.75,-467.57 2.75,-461.57 8.75,-455.57 14.75,-455.57 14.75,-455.57 44.75,-455.57 44.75,-455.57 50.75,-455.57 56.75,-461.57 56.75,-467.57 56.75,-467.57 56.75,-479.57 56.75,-479.57 56.75,-485.57 50.75,-491.57 44.75,-491.57"/>
<text text-anchor="middle" x="29.75" y="-468.52" font-family="Times,serif" font-size="14.00">doc</text>
</g>
<!-- draw&#45;&gt;boxes -->
<g id="edge32" class="edge">
<title>draw&#45;&gt;boxes</title>
<path fill="none" stroke="black" d="M582.54,-930.12C587.37,-925.95 592.19,-921.33 596.25,-916.57 616.48,-892.8 633.97,-861.63 645.27,-839.26"/>
<polygon fill="black" stroke="black" points="648.35,-840.93 649.63,-830.41 642.07,-837.83 648.35,-840.93"/>
</g>
<!-- draw&#45;&gt;tlib -->
<g id="edge33" class="edge">
<title>draw&#45;&gt;tlib</title>
<path fill="none" stroke="black" d="M584.13,-947.84C645.76,-944.59 799.36,-927.12 870.5,-834.57 913.91,-778.09 927.72,-555.96 931.37,-475.16"/>
<polygon fill="black" stroke="black" points="934.85,-475.53 931.78,-465.39 927.86,-475.23 934.85,-475.53"/>
</g>
<!-- eval&#45;&gt;boxes -->
<g id="edge34" class="edge">
<title>eval&#45;&gt;boxes</title>
<path fill="none" stroke="black" d="M463.33,-699.91C476.57,-714.52 496.61,-734.76 517.25,-748.57 550.06,-770.52 591.92,-787.72 621.58,-798.38"/>
<polygon fill="black" stroke="black" points="620.28,-801.64 630.87,-801.64 622.6,-795.03 620.28,-801.64"/>
</g>
<!-- eval&#45;&gt;errors -->
<g id="edge35" class="edge">
<title>eval&#45;&gt;errors</title>
<path fill="none" stroke="black" d="M473.94,-680.57C510.94,-679.17 578.56,-676.6 620.94,-675"/>
<polygon fill="black" stroke="black" points="621.07,-678.5 630.93,-674.62 620.8,-671.5 621.07,-678.5"/>
</g>
<!-- normalize -->
<g id="node17" class="node">
<title>normalize</title>
<path fill="none" stroke="black" d="M580.12,-325.57C580.12,-325.57 533.38,-325.57 533.38,-325.57 527.38,-325.57 521.38,-319.57 521.38,-313.57 521.38,-313.57 521.38,-301.57 521.38,-301.57 521.38,-295.57 527.38,-289.57 533.38,-289.57 533.38,-289.57 580.12,-289.57 580.12,-289.57 586.12,-289.57 592.12,-295.57 592.12,-301.57 592.12,-301.57 592.12,-313.57 592.12,-313.57 592.12,-319.57 586.12,-325.57 580.12,-325.57"/>
<text text-anchor="middle" x="556.75" y="-302.52" font-family="Times,serif" font-size="14.00">normalize</text>
</g>
<!-- eval&#45;&gt;normalize -->
<g id="edge36" class="edge">
<title>eval&#45;&gt;normalize</title>
<path fill="none" stroke="black" d="M452.91,-663.27C470.34,-603 526.06,-410.27 547.36,-336.59"/>
<polygon fill="black" stroke="black" points="550.64,-337.85 550.05,-327.28 543.91,-335.91 550.64,-337.85"/>
</g>
<!-- eval&#45;&gt;parser -->
<g id="edge37" class="edge">
<title>eval&#45;&gt;parser</title>
<path fill="none" stroke="black" d="M458.99,-699.96C477.97,-730.68 516.23,-792.61 538.54,-828.7"/>
<polygon fill="black" stroke="black" points="535.34,-830.2 543.58,-836.86 541.3,-826.52 535.34,-830.2"/>
</g>
<!-- eval&#45;&gt;propagate -->
<g id="edge38" class="edge">
<title>eval&#45;&gt;propagate</title>
<path fill="none" stroke="black" d="M465.97,-663.41C483.36,-646.2 509.69,-620.14 529.35,-600.69"/>
<polygon fill="black" stroke="black" points="531.6,-603.39 536.24,-593.87 526.67,-598.42 531.6,-603.39"/>
</g>
<!-- eval&#45;&gt;signals -->
<g id="edge39" class="edge">
<title>eval&#45;&gt;signals</title>
<path fill="none" stroke="black" d="M473.94,-687.97C529.15,-700.72 654.69,-726 687.25,-700.57 722.81,-672.78 741.41,-535.68 748.02,-474.79"/>
<polygon fill="black" stroke="black" points="751.46,-475.5 749.03,-465.19 744.5,-474.77 751.46,-475.5"/>
</g>
<!-- eval&#45;&gt;tlib -->
<g id="edge40" class="edge">
<title>eval&#45;&gt;tlib</title>
<path fill="none" stroke="black" d="M473.91,-698.81C486.49,-706.08 502.08,-713.73 517.25,-717.57 590.51,-736.06 616.09,-744.98 687.25,-719.57 786.37,-684.17 804.79,-651.78 870.5,-569.57 893.9,-540.28 911.78,-500.73 922.19,-474.25"/>
<polygon fill="black" stroke="black" points="925.36,-475.77 925.65,-465.18 918.82,-473.27 925.36,-475.77"/>
</g>
<!-- faust&#45;ffi -->
<g id="node11" class="node">
<title>faust&#45;ffi</title>
<path fill="none" stroke="black" d="M47.5,-437.57C47.5,-437.57 12,-437.57 12,-437.57 6,-437.57 0,-431.57 0,-425.57 0,-425.57 0,-413.57 0,-413.57 0,-407.57 6,-401.57 12,-401.57 12,-401.57 47.5,-401.57 47.5,-401.57 53.5,-401.57 59.5,-407.57 59.5,-413.57 59.5,-413.57 59.5,-425.57 59.5,-425.57 59.5,-431.57 53.5,-437.57 47.5,-437.57"/>
<text text-anchor="middle" x="29.75" y="-414.52" font-family="Times,serif" font-size="14.00">faust&#45;ffi</text>
</g>
<!-- faust&#45;ffi&#45;&gt;box&#45;ffi -->
<g id="edge41" class="edge">
<title>faust&#45;ffi&#45;&gt;box&#45;ffi</title>
<path fill="none" stroke="black" d="M59.83,-405.51C70.79,-400.73 83.5,-395.79 95.5,-392.57 131.68,-382.85 174.28,-378.04 204.1,-375.69"/>
<polygon fill="black" stroke="black" points="204.02,-379.2 213.74,-374.99 203.51,-372.22 204.02,-379.2"/>
</g>
<!-- faust&#45;ffi&#45;&gt;cranelift&#45;ffi -->
<g id="edge42" class="edge">
<title>faust&#45;ffi&#45;&gt;cranelift&#45;ffi</title>
<path fill="none" stroke="black" d="M59.95,-419.57C67.38,-419.57 75.58,-419.57 83.72,-419.57"/>
<polygon fill="black" stroke="black" points="83.6,-423.07 93.6,-419.57 83.6,-416.07 83.6,-423.07"/>
</g>
<!-- faust&#45;ffi&#45;&gt;interp&#45;ffi -->
<g id="edge43" class="edge">
<title>faust&#45;ffi&#45;&gt;interp&#45;ffi</title>
<path fill="none" stroke="black" d="M59.83,-433.63C70.79,-438.4 83.5,-443.34 95.5,-446.57 129.5,-455.69 169.17,-460.5 198.57,-462.99"/>
<polygon fill="black" stroke="black" points="197.95,-466.45 208.19,-463.75 198.5,-459.47 197.95,-466.45"/>
</g>
<!-- fir&#45;&gt;tlib -->
<g id="edge44" class="edge">
<title>fir&#45;&gt;tlib</title>
<path fill="none" stroke="black" d="M584.05,-39.45C643.53,-22.88 789.48,7.42 870.5,-65.57 922.23,-112.16 930.82,-334.53 932.23,-415.76"/>
<polygon fill="black" stroke="black" points="928.73,-415.65 932.38,-425.6 935.73,-415.55 928.73,-415.65"/>
</g>
<!-- graph -->
<g id="node14" class="node">
<title>graph</title>
<path fill="none" stroke="black" d="M44.75,-545.57C44.75,-545.57 14.75,-545.57 14.75,-545.57 8.75,-545.57 2.75,-539.57 2.75,-533.57 2.75,-533.57 2.75,-521.57 2.75,-521.57 2.75,-515.57 8.75,-509.57 14.75,-509.57 14.75,-509.57 44.75,-509.57 44.75,-509.57 50.75,-509.57 56.75,-515.57 56.75,-521.57 56.75,-521.57 56.75,-533.57 56.75,-533.57 56.75,-539.57 50.75,-545.57 44.75,-545.57"/>
<text text-anchor="middle" x="29.75" y="-522.52" font-family="Times,serif" font-size="14.00">graph</text>
</g>
<!-- interp&#45;ffi&#45;&gt;codegen -->
<g id="edge45" class="edge">
<title>interp&#45;ffi&#45;&gt;codegen</title>
<path fill="none" stroke="black" d="M252.8,-447.2C259.27,-434.25 268.01,-416.45 275.25,-400.57 292.26,-363.23 285.72,-347.68 311.25,-315.57 333.38,-287.73 351.78,-294.6 376,-268.57 396.66,-246.35 392.86,-234.1 412,-210.57 413.57,-208.64 415.25,-206.7 416.99,-204.8"/>
<polygon fill="black" stroke="black" points="419.33,-207.42 423.81,-197.82 414.32,-202.53 419.33,-207.42"/>
</g>
<!-- interp&#45;ffi&#45;&gt;compiler -->
<g id="edge46" class="edge">
<title>interp&#45;ffi&#45;&gt;compiler</title>
<path fill="none" stroke="black" d="M275.14,-466.52C282.92,-466.76 291.38,-467.01 299.59,-467.26"/>
<polygon fill="black" stroke="black" points="299.34,-470.76 309.44,-467.56 299.55,-463.76 299.34,-470.76"/>
</g>
<!-- interp&#45;ffi&#45;&gt;utils -->
<g id="edge47" class="edge">
<title>interp&#45;ffi&#45;&gt;utils</title>
<path fill="none" stroke="black" d="M251.34,-483.94C257.85,-499.3 267.3,-521.8 275.25,-541.57 291.79,-582.68 287.24,-597.31 311.25,-634.57 312.42,-636.38 313.7,-638.18 315.07,-639.94"/>
<polygon fill="black" stroke="black" points="312.16,-641.94 321.34,-647.23 317.47,-637.37 312.16,-641.94"/>
</g>
<!-- interval -->
<g id="node16" class="node">
<title>interval</title>
<path fill="none" stroke="black" d="M768.5,-333.57C768.5,-333.57 735.25,-333.57 735.25,-333.57 729.25,-333.57 723.25,-327.57 723.25,-321.57 723.25,-321.57 723.25,-309.57 723.25,-309.57 723.25,-303.57 729.25,-297.57 735.25,-297.57 735.25,-297.57 768.5,-297.57 768.5,-297.57 774.5,-297.57 780.5,-303.57 780.5,-309.57 780.5,-309.57 780.5,-321.57 780.5,-321.57 780.5,-327.57 774.5,-333.57 768.5,-333.57"/>
<text text-anchor="middle" x="751.88" y="-310.52" font-family="Times,serif" font-size="14.00">interval</text>
</g>
<!-- normalize&#45;&gt;interval -->
<g id="edge48" class="edge">
<title>normalize&#45;&gt;interval</title>
<path fill="none" stroke="black" d="M592.28,-309C625.81,-310.38 676.65,-312.49 711.68,-313.94"/>
<polygon fill="black" stroke="black" points="711.26,-317.43 721.4,-314.34 711.55,-310.43 711.26,-317.43"/>
</g>
<!-- normalize&#45;&gt;signals -->
<g id="edge49" class="edge">
<title>normalize&#45;&gt;signals</title>
<path fill="none" stroke="black" d="M573.7,-325.8C588.02,-341.51 610.14,-364.17 632.25,-380.57 658.04,-399.7 690.13,-416.94 714.43,-428.85"/>
<polygon fill="black" stroke="black" points="712.77,-431.93 723.3,-433.12 715.8,-425.63 712.77,-431.93"/>
</g>
<!-- normalize&#45;&gt;sigtype -->
<g id="edge50" class="edge">
<title>normalize&#45;&gt;sigtype</title>
<path fill="none" stroke="black" d="M592.51,-323.4C601.88,-327.66 612.05,-332.3 621.55,-336.62"/>
<polygon fill="black" stroke="black" points="619.98,-339.75 630.53,-340.71 622.88,-333.38 619.98,-339.75"/>
</g>
<!-- normalize&#45;&gt;tlib -->
<g id="edge51" class="edge">
<title>normalize&#45;&gt;tlib</title>
<path fill="none" stroke="black" d="M592.53,-292.11C655.19,-266.88 788.17,-225.63 870.5,-288.57 910.56,-319.19 924.78,-379.56 929.79,-415.87"/>
<polygon fill="black" stroke="black" points="926.3,-416.17 930.98,-425.68 933.25,-415.33 926.3,-416.17"/>
</g>
<!-- normalize&#45;&gt;ui -->
<g id="edge52" class="edge">
<title>normalize&#45;&gt;ui</title>
<path fill="none" stroke="black" d="M592.47,-298.46C636.6,-288.29 714.96,-274.91 780.5,-288.57 788.97,-290.33 797.7,-293.32 805.84,-296.67"/>
<polygon fill="black" stroke="black" points="804.19,-299.77 814.75,-300.62 807.03,-293.37 804.19,-299.77"/>
</g>
<!-- parser&#45;&gt;boxes -->
<g id="edge53" class="edge">
<title>parser&#45;&gt;boxes</title>
<path fill="none" stroke="black" d="M584.02,-844.6C595.62,-839.32 609.45,-833.02 622.05,-827.28"/>
<polygon fill="black" stroke="black" points="623.23,-830.59 630.88,-823.26 620.33,-824.22 623.23,-830.59"/>
</g>
<!-- parser&#45;&gt;errors -->
<g id="edge54" class="edge">
<title>parser&#45;&gt;errors</title>
<path fill="none" stroke="black" d="M567.8,-838.35C585.45,-806.37 622.13,-739.92 643.11,-701.9"/>
<polygon fill="black" stroke="black" points="646.09,-703.75 647.86,-693.3 639.96,-700.37 646.09,-703.75"/>
</g>
<!-- parser&#45;&gt;tlib -->
<g id="edge55" class="edge">
<title>parser&#45;&gt;tlib</title>
<path fill="none" stroke="black" d="M584.21,-861.45C645.34,-871.02 796.76,-884.65 870.5,-801.57 913.49,-753.13 927.46,-551.28 931.26,-474.96"/>
<polygon fill="black" stroke="black" points="934.74,-475.5 931.72,-465.35 927.75,-475.17 934.74,-475.5"/>
</g>
<!-- propagate&#45;&gt;boxes -->
<g id="edge56" class="edge">
<title>propagate&#45;&gt;boxes</title>
<path fill="none" stroke="black" d="M565.51,-592.69C582.95,-633.45 625.38,-732.59 646.45,-781.83"/>
<polygon fill="black" stroke="black" points="643.22,-783.17 650.37,-790.99 649.65,-780.41 643.22,-783.17"/>
</g>
<!-- propagate&#45;&gt;errors -->
<g id="edge57" class="edge">
<title>propagate&#45;&gt;errors</title>
<path fill="none" stroke="black" d="M580.96,-593.05C586.1,-597.37 591.45,-602.03 596.25,-606.57 609.78,-619.34 624,-634.44 635.45,-647.06"/>
<polygon fill="black" stroke="black" points="632.59,-649.12 641.88,-654.22 637.8,-644.44 632.59,-649.12"/>
</g>
<!-- propagate&#45;&gt;signals -->
<g id="edge58" class="edge">
<title>propagate&#45;&gt;signals</title>
<path fill="none" stroke="black" d="M586.17,-556.19C612.5,-539.11 652.68,-512.86 687.25,-489.57 696.43,-483.38 706.28,-476.62 715.44,-470.3"/>
<polygon fill="black" stroke="black" points="717.19,-473.34 723.42,-464.77 713.2,-467.59 717.19,-473.34"/>
</g>
<!-- propagate&#45;&gt;tlib -->
<g id="edge59" class="edge">
<title>propagate&#45;&gt;tlib</title>
<path fill="none" stroke="black" d="M591.8,-580.3C652.73,-588.71 782.27,-598 870.5,-543.57 895.97,-527.85 912.77,-497.34 922.38,-474.51"/>
<polygon fill="black" stroke="black" points="925.55,-476.02 925.97,-465.43 919.04,-473.44 925.55,-476.02"/>
</g>
<!-- propagate&#45;&gt;ui -->
<g id="edge60" class="edge">
<title>propagate&#45;&gt;ui</title>
<path fill="none" stroke="black" d="M591.87,-567.9C640.51,-556.67 729.5,-529.38 780.5,-472.57 813.51,-435.79 829.93,-379.35 837.3,-345.1"/>
<polygon fill="black" stroke="black" points="840.7,-345.96 839.24,-335.46 833.83,-344.58 840.7,-345.96"/>
</g>
<!-- signals&#45;&gt;tlib -->
<g id="edge61" class="edge">
<title>signals&#45;&gt;tlib</title>
<path fill="none" stroke="black" d="M778.99,-445.57C809.5,-445.57 860.22,-445.57 894.94,-445.57"/>
<polygon fill="black" stroke="black" points="894.54,-449.07 904.54,-445.57 894.54,-442.07 894.54,-449.07"/>
</g>
<!-- signals&#45;&gt;ui -->
<g id="edge62" class="edge">
<title>signals&#45;&gt;ui</title>
<path fill="none" stroke="black" d="M765.53,-427.22C780.61,-405.34 805.95,-368.57 823.42,-343.24"/>
<polygon fill="black" stroke="black" points="826.26,-345.29 829.05,-335.07 820.5,-341.31 826.26,-345.29"/>
</g>
<!-- sigtype&#45;&gt;interval -->
<g id="edge63" class="edge">
<title>sigtype&#45;&gt;interval</title>
<path fill="none" stroke="black" d="M687.3,-342.37C695.19,-339.04 703.99,-335.33 712.47,-331.76"/>
<polygon fill="black" stroke="black" points="713.7,-335.04 721.55,-327.93 710.98,-328.59 713.7,-335.04"/>
</g>
<!-- sigtype&#45;&gt;signals -->
<g id="edge64" class="edge">
<title>sigtype&#45;&gt;signals</title>
<path fill="none" stroke="black" d="M678.56,-371.74C691.8,-385.26 710.08,-403.92 724.94,-419.09"/>
<polygon fill="black" stroke="black" points="722.24,-421.34 731.74,-426.03 727.24,-416.44 722.24,-421.34"/>
</g>
<!-- sigtype&#45;&gt;tlib -->
<g id="edge65" class="edge">
<title>sigtype&#45;&gt;tlib</title>
<path fill="none" stroke="black" d="M687.3,-362.55C736.03,-379.05 839.83,-414.19 895.46,-433.03"/>
<polygon fill="black" stroke="black" points="894.21,-436.3 904.81,-436.19 896.46,-429.67 894.21,-436.3"/>
</g>
<!-- sigtype&#45;&gt;ui -->
<g id="edge66" class="edge">
<title>sigtype&#45;&gt;ui</title>
<path fill="none" stroke="black" d="M687.32,-353.54C711.87,-352.94 749.16,-350.61 780.5,-342.57 788.88,-340.41 797.58,-337.26 805.71,-333.87"/>
<polygon fill="black" stroke="black" points="806.88,-337.18 814.62,-329.94 804.06,-330.77 806.88,-337.18"/>
</g>
<!-- transform&#45;&gt;fir -->
<g id="edge67" class="edge">
<title>transform&#45;&gt;fir</title>
<path fill="none" stroke="black" d="M470.67,-252.2C474.69,-248.09 478.46,-243.47 481.25,-238.57 517.03,-175.56 479.38,-141.34 517.25,-79.57 518.54,-77.46 520.02,-75.42 521.63,-73.47"/>
<polygon fill="black" stroke="black" points="523.87,-76.2 528.3,-66.57 518.83,-71.33 523.87,-76.2"/>
</g>
<!-- transform&#45;&gt;normalize -->
<g id="edge68" class="edge">
<title>transform&#45;&gt;normalize</title>
<path fill="none" stroke="black" d="M481.54,-282.17C490.72,-285.31 500.8,-288.76 510.5,-292.08"/>
<polygon fill="black" stroke="black" points="509.18,-295.33 519.78,-295.26 511.45,-288.71 509.18,-295.33"/>
</g>
<!-- transform&#45;&gt;signals -->
<g id="edge69" class="edge">
<title>transform&#45;&gt;signals</title>
<path fill="none" stroke="black" d="M458.71,-288.94C471.03,-308.11 492.48,-338.05 517.25,-357.57 576.81,-404.51 664.09,-428.39 713.38,-438.81"/>
<polygon fill="black" stroke="black" points="712.48,-442.2 722.98,-440.76 713.88,-435.34 712.48,-442.2"/>
</g>
<!-- transform&#45;&gt;sigtype -->
<g id="edge70" class="edge">
<title>transform&#45;&gt;sigtype</title>
<path fill="none" stroke="black" d="M462.08,-289.02C474.88,-303.94 494.95,-324.11 517.25,-334.57 549.8,-349.82 590.88,-353.89 620.38,-354.55"/>
<polygon fill="black" stroke="black" points="620.32,-358.05 630.35,-354.64 620.38,-351.05 620.32,-358.05"/>
</g>
<!-- transform&#45;&gt;tlib -->
<g id="edge71" class="edge">
<title>transform&#45;&gt;tlib</title>
<path fill="none" stroke="black" d="M469.69,-252.16C473.89,-247.98 477.98,-243.36 481.25,-238.57 505.08,-203.67 485.02,-177.9 517.25,-150.57 607.89,-73.69 677.5,-44.27 780.5,-103.57 894.95,-169.45 923.48,-346.28 930.38,-416.37"/>
<polygon fill="black" stroke="black" points="926.85,-416.27 931.23,-425.91 933.82,-415.64 926.85,-416.27"/>
</g>
<!-- transform&#45;&gt;ui -->
<g id="edge72" class="edge">
<title>transform&#45;&gt;ui</title>
<path fill="none" stroke="black" d="M481.56,-257.63C512.27,-245.44 558.36,-225.88 596.25,-204.57 613.23,-195.01 613.66,-185.39 632.25,-179.57 695.13,-159.87 725.08,-143.92 780.5,-179.57 817.04,-203.07 832.31,-254.01 838.49,-286.44"/>
<polygon fill="black" stroke="black" points="834.99,-286.71 840.13,-295.97 841.89,-285.52 834.99,-286.71"/>
</g>
<!-- ui&#45;&gt;tlib -->
<g id="edge73" class="edge">
<title>ui&#45;&gt;tlib</title>
<path fill="none" stroke="black" d="M856.92,-333.92C871.73,-355.79 896.62,-392.56 913.76,-417.89"/>
<polygon fill="black" stroke="black" points="910.79,-419.74 919.29,-426.06 916.59,-415.81 910.79,-419.74"/>
</g>
<!-- wasm&#45;ffi -->
<g id="node26" class="node">
<title>wasm&#45;ffi</title>
<path fill="none" stroke="black" d="M263.25,-586.57C263.25,-586.57 221.75,-586.57 221.75,-586.57 215.75,-586.57 209.75,-580.57 209.75,-574.57 209.75,-574.57 209.75,-562.57 209.75,-562.57 209.75,-556.57 215.75,-550.57 221.75,-550.57 221.75,-550.57 263.25,-550.57 263.25,-550.57 269.25,-550.57 275.25,-556.57 275.25,-562.57 275.25,-562.57 275.25,-574.57 275.25,-574.57 275.25,-580.57 269.25,-586.57 263.25,-586.57"/>
<text text-anchor="middle" x="242.5" y="-563.52" font-family="Times,serif" font-size="14.00">wasm&#45;ffi</text>
</g>
<!-- wasm&#45;ffi&#45;&gt;codegen -->
<g id="edge74" class="edge">
<title>wasm&#45;ffi&#45;&gt;codegen</title>
<path fill="none" stroke="black" d="M253.66,-550.07C276.82,-507.58 334.72,-399.4 376,-305.57 394.18,-264.24 387.02,-248.18 412,-210.57 413.2,-208.75 414.53,-206.97 415.93,-205.22"/>
<polygon fill="black" stroke="black" points="418.33,-207.79 422.44,-198.03 413.14,-203.09 418.33,-207.79"/>
</g>
<!-- wasm&#45;ffi&#45;&gt;compiler -->
<g id="edge75" class="edge">
<title>wasm&#45;ffi&#45;&gt;compiler</title>
<path fill="none" stroke="black" d="M261.68,-550.22C277.05,-534.72 299.26,-512.31 316.53,-494.89"/>
<polygon fill="black" stroke="black" points="318.94,-497.43 323.49,-487.87 313.97,-492.5 318.94,-497.43"/>
</g>
<!-- wasm&#45;ffi&#45;&gt;parser -->
<g id="edge76" class="edge">
<title>wasm&#45;ffi&#45;&gt;parser</title>
<path fill="none" stroke="black" d="M248.76,-587.02C264.16,-637.32 314.4,-777.04 412,-836.57 443.91,-856.02 487.09,-859.65 517.78,-859.25"/>
<polygon fill="black" stroke="black" points="517.88,-862.75 527.77,-858.96 517.67,-855.76 517.88,-862.75"/>
</g>
<!-- wasm&#45;ffi&#45;&gt;utils -->
<g id="edge77" class="edge">
<title>wasm&#45;ffi&#45;&gt;utils</title>
<path fill="none" stroke="black" d="M262.14,-587C277.37,-602.06 299.09,-623.52 316.13,-640.37"/>
<polygon fill="black" stroke="black" points="313.42,-642.61 322.99,-647.15 318.34,-637.63 313.42,-642.61"/>
</g>
<!-- xtask -->
<g id="node27" class="node">
<title>xtask</title>
<path fill="none" stroke="black" d="M257.5,-148.57C257.5,-148.57 227.5,-148.57 227.5,-148.57 221.5,-148.57 215.5,-142.57 215.5,-136.57 215.5,-136.57 215.5,-124.57 215.5,-124.57 215.5,-118.57 221.5,-112.57 227.5,-112.57 227.5,-112.57 257.5,-112.57 257.5,-112.57 263.5,-112.57 269.5,-118.57 269.5,-124.57 269.5,-124.57 269.5,-136.57 269.5,-136.57 269.5,-142.57 263.5,-148.57 257.5,-148.57"/>
<text text-anchor="middle" x="242.5" y="-125.52" font-family="Times,serif" font-size="14.00">xtask</text>
</g>
<!-- xtask&#45;&gt;codegen -->
<g id="edge78" class="edge">
<title>xtask&#45;&gt;codegen</title>
<path fill="none" stroke="black" d="M269.92,-136.84C304.28,-145 364.64,-159.33 404.88,-168.89"/>
<polygon fill="black" stroke="black" points="403.9,-172.25 414.44,-171.16 405.52,-165.44 403.9,-172.25"/>
</g>
<!-- xtask&#45;&gt;compiler -->
<g id="edge79" class="edge">
<title>xtask&#45;&gt;compiler</title>
<path fill="none" stroke="black" d="M248.83,-148.74C265.1,-204.22 314.23,-371.73 334.12,-439.57"/>
<polygon fill="black" stroke="black" points="330.67,-440.24 336.84,-448.85 337.39,-438.27 330.67,-440.24"/>
</g>
<!-- xtask&#45;&gt;fir -->
<g id="edge80" class="edge">
<title>xtask&#45;&gt;fir</title>
<path fill="none" stroke="black" d="M262.91,-112.09C275.65,-101.08 293.23,-87.87 311.25,-80.57 380.38,-52.55 468.6,-47.38 517.94,-46.94"/>
<polygon fill="black" stroke="black" points="517.82,-50.44 527.81,-46.92 517.81,-43.44 517.82,-50.44"/>
</g>
</g>
</svg>
