<?xml version="1.0" encoding="UTF-8" standalone="no"?>
<!DOCTYPE svg PUBLIC "-//W3C//DTD SVG 1.1//EN"
 "http://www.w3.org/Graphics/SVG/1.1/DTD/svg11.dtd">
<!-- Generated by graphviz version 12.2.1 (20241206.2353)
 -->
<!-- Title: ir_overview Pages: 1 -->
<svg width="883pt" height="341pt"
 viewBox="0.00 0.00 883.25 341.00" xmlns="http://www.w3.org/2000/svg" xmlns:xlink="http://www.w3.org/1999/xlink">
<g id="graph0" class="graph" transform="scale(1 1) rotate(0) translate(4 337)">
<title>ir_overview</title>
<polygon fill="white" stroke="none" points="-4,4 -4,-337 879.25,-337 879.25,4 -4,4"/>
<!-- boxes::BoxBuilder -->
<g id="node1" class="node">
<title>boxes::BoxBuilder</title>
<path fill="none" stroke="black" d="M106,-36C106,-36 12,-36 12,-36 6,-36 0,-30 0,-24 0,-24 0,-12 0,-12 0,-6 6,0 12,0 12,0 106,0 106,0 112,0 118,-6 118,-12 118,-12 118,-24 118,-24 118,-30 112,-36 106,-36"/>
<text text-anchor="middle" x="59" y="-12.95" font-family="Times,serif" font-size="14.00">boxes::BoxBuilder</text>
</g>
<!-- BoxId / TreeArena -->
<g id="node2" class="node">
<title>BoxId / TreeArena</title>
<path fill="none" stroke="black" d="M286.62,-36C286.62,-36 192.62,-36 192.62,-36 186.62,-36 180.62,-30 180.62,-24 180.62,-24 180.62,-12 180.62,-12 180.62,-6 186.62,0 192.62,0 192.62,0 286.62,0 286.62,0 292.62,0 298.62,-6 298.62,-12 298.62,-12 298.62,-24 298.62,-24 298.62,-30 292.62,-36 286.62,-36"/>
<text text-anchor="middle" x="239.62" y="-12.95" font-family="Times,serif" font-size="14.00">BoxId / TreeArena</text>
</g>
<!-- boxes::BoxBuilder&#45;&gt;BoxId / TreeArena -->
<g id="edge1" class="edge">
<title>boxes::BoxBuilder&#45;&gt;BoxId / TreeArena</title>
<path fill="none" stroke="black" d="M118.49,-18C134.61,-18 152.26,-18 168.94,-18"/>
<polygon fill="black" stroke="black" points="168.8,-21.5 178.8,-18 168.8,-14.5 168.8,-21.5"/>
</g>
<!-- match_box -->
<g id="node3" class="node">
<title>match_box</title>
<path fill="none" stroke="black" d="M444.38,-36C444.38,-36 391.62,-36 391.62,-36 385.62,-36 379.62,-30 379.62,-24 379.62,-24 379.62,-12 379.62,-12 379.62,-6 385.62,0 391.62,0 391.62,0 444.38,0 444.38,0 450.38,0 456.38,-6 456.38,-12 456.38,-12 456.38,-24 456.38,-24 456.38,-30 450.38,-36 444.38,-36"/>
<text text-anchor="middle" x="418" y="-12.95" font-family="Times,serif" font-size="14.00">match_box</text>
</g>
<!-- BoxId / TreeArena&#45;&gt;match_box -->
<g id="edge2" class="edge">
<title>BoxId / TreeArena&#45;&gt;match_box</title>
<path fill="none" stroke="black" d="M298.87,-18C321.22,-18 346.48,-18 367.89,-18"/>
<polygon fill="black" stroke="black" points="367.83,-21.5 377.83,-18 367.83,-14.5 367.83,-21.5"/>
</g>
<!-- ui::UiProgram -->
<g id="node4" class="node">
<title>ui::UiProgram</title>
<path fill="none" stroke="black" d="M94.38,-90C94.38,-90 23.62,-90 23.62,-90 17.62,-90 11.62,-84 11.62,-78 11.62,-78 11.62,-66 11.62,-66 11.62,-60 17.62,-54 23.62,-54 23.62,-54 94.38,-54 94.38,-54 100.38,-54 106.38,-60 106.38,-66 106.38,-66 106.38,-78 106.38,-78 106.38,-84 100.38,-90 94.38,-90"/>
<text text-anchor="middle" x="59" y="-66.95" font-family="Times,serif" font-size="14.00">ui::UiProgram</text>
</g>
<!-- UI groups/controls/metadata -->
<g id="node5" class="node">
<title>UI groups/controls/metadata</title>
<path fill="none" stroke="black" d="M313.25,-90C313.25,-90 166,-90 166,-90 160,-90 154,-84 154,-78 154,-78 154,-66 154,-66 154,-60 160,-54 166,-54 166,-54 313.25,-54 313.25,-54 319.25,-54 325.25,-60 325.25,-66 325.25,-66 325.25,-78 325.25,-78 325.25,-84 319.25,-90 313.25,-90"/>
<text text-anchor="middle" x="239.62" y="-66.95" font-family="Times,serif" font-size="14.00">UI groups/controls/metadata</text>
</g>
<!-- ui::UiProgram&#45;&gt;UI groups/controls/metadata -->
<g id="edge3" class="edge">
<title>ui::UiProgram&#45;&gt;UI groups/controls/metadata</title>
<path fill="none" stroke="black" d="M106.47,-72C117.55,-72 129.78,-72 142.2,-72"/>
<polygon fill="black" stroke="black" points="142.11,-75.5 152.11,-72 142.11,-68.5 142.11,-75.5"/>
</g>
<!-- signals::SigBuilder -->
<g id="node6" class="node">
<title>signals::SigBuilder</title>
<path fill="none" stroke="black" d="M287.38,-144C287.38,-144 191.88,-144 191.88,-144 185.88,-144 179.88,-138 179.88,-132 179.88,-132 179.88,-120 179.88,-120 179.88,-114 185.88,-108 191.88,-108 191.88,-108 287.38,-108 287.38,-108 293.38,-108 299.38,-114 299.38,-120 299.38,-120 299.38,-132 299.38,-132 299.38,-138 293.38,-144 287.38,-144"/>
<text text-anchor="middle" x="239.62" y="-120.95" font-family="Times,serif" font-size="14.00">signals::SigBuilder</text>
</g>
<!-- SigId / TreeArena -->
<g id="node7" class="node">
<title>SigId / TreeArena</title>
<path fill="none" stroke="black" d="M462.75,-144C462.75,-144 373.25,-144 373.25,-144 367.25,-144 361.25,-138 361.25,-132 361.25,-132 361.25,-120 361.25,-120 361.25,-114 367.25,-108 373.25,-108 373.25,-108 462.75,-108 462.75,-108 468.75,-108 474.75,-114 474.75,-120 474.75,-120 474.75,-132 474.75,-132 474.75,-138 468.75,-144 462.75,-144"/>
<text text-anchor="middle" x="418" y="-120.95" font-family="Times,serif" font-size="14.00">SigId / TreeArena</text>
</g>
<!-- signals::SigBuilder&#45;&gt;SigId / TreeArena -->
<g id="edge4" class="edge">
<title>signals::SigBuilder&#45;&gt;SigId / TreeArena</title>
<path fill="none" stroke="black" d="M299.85,-126C315.86,-126 333.32,-126 349.74,-126"/>
<polygon fill="black" stroke="black" points="349.4,-129.5 359.4,-126 349.4,-122.5 349.4,-129.5"/>
</g>
<!-- match_sig -->
<g id="node8" class="node">
<title>match_sig</title>
<path fill="none" stroke="black" d="M571,-144C571,-144 522.75,-144 522.75,-144 516.75,-144 510.75,-138 510.75,-132 510.75,-132 510.75,-120 510.75,-120 510.75,-114 516.75,-108 522.75,-108 522.75,-108 571,-108 571,-108 577,-108 583,-114 583,-120 583,-120 583,-132 583,-132 583,-138 577,-144 571,-144"/>
<text text-anchor="middle" x="546.88" y="-120.95" font-family="Times,serif" font-size="14.00">match_sig</text>
</g>
<!-- SigId / TreeArena&#45;&gt;match_sig -->
<g id="edge5" class="edge">
<title>SigId / TreeArena&#45;&gt;match_sig</title>
<path fill="none" stroke="black" d="M475.02,-126C483.14,-126 491.42,-126 499.32,-126"/>
<polygon fill="black" stroke="black" points="499.06,-129.5 509.06,-126 499.06,-122.5 499.06,-129.5"/>
</g>
<!-- signals::ad_rules -->
<g id="node9" class="node">
<title>signals::ad_rules</title>
<path fill="none" stroke="black" d="M100.38,-144C100.38,-144 17.62,-144 17.62,-144 11.62,-144 5.63,-138 5.63,-132 5.63,-132 5.63,-120 5.63,-120 5.63,-114 11.63,-108 17.63,-108 17.63,-108 100.38,-108 100.38,-108 106.38,-108 112.38,-114 112.38,-120 112.38,-120 112.38,-132 112.38,-132 112.38,-138 106.38,-144 100.38,-144"/>
<text text-anchor="middle" x="59" y="-120.95" font-family="Times,serif" font-size="14.00">signals::ad_rules</text>
</g>
<!-- signals::ad_rules&#45;&gt;signals::SigBuilder -->
<g id="edge6" class="edge">
<title>signals::ad_rules&#45;&gt;signals::SigBuilder</title>
<path fill="none" stroke="black" d="M112.63,-126C130.01,-126 149.64,-126 168.14,-126"/>
<polygon fill="black" stroke="black" points="167.97,-129.5 177.97,-126 167.97,-122.5 167.97,-129.5"/>
</g>
<!-- fir::FirStore -->
<g id="node10" class="node">
<title>fir::FirStore</title>
<path fill="none" stroke="black" d="M87.25,-225C87.25,-225 30.75,-225 30.75,-225 24.75,-225 18.75,-219 18.75,-213 18.75,-213 18.75,-201 18.75,-201 18.75,-195 24.75,-189 30.75,-189 30.75,-189 87.25,-189 87.25,-189 93.25,-189 99.25,-195 99.25,-201 99.25,-201 99.25,-213 99.25,-213 99.25,-219 93.25,-225 87.25,-225"/>
<text text-anchor="middle" x="59" y="-201.95" font-family="Times,serif" font-size="14.00">fir::FirStore</text>
</g>
<!-- FirModule -->
<g id="node11" class="node">
<title>FirModule</title>
<path fill="none" stroke="black" d="M264.88,-225C264.88,-225 214.38,-225 214.38,-225 208.38,-225 202.38,-219 202.38,-213 202.38,-213 202.38,-201 202.38,-201 202.38,-195 208.38,-189 214.38,-189 214.38,-189 264.88,-189 264.88,-189 270.88,-189 276.88,-195 276.88,-201 276.88,-201 276.88,-213 276.88,-213 276.88,-219 270.88,-225 264.88,-225"/>
<text text-anchor="middle" x="239.62" y="-201.95" font-family="Times,serif" font-size="14.00">FirModule</text>
</g>
<!-- fir::FirStore&#45;&gt;FirModule -->
<g id="edge7" class="edge">
<title>fir::FirStore&#45;&gt;FirModule</title>
<path fill="none" stroke="black" d="M99.64,-207C126.56,-207 162.31,-207 190.81,-207"/>
<polygon fill="black" stroke="black" points="190.62,-210.5 200.62,-207 190.62,-203.5 190.62,-210.5"/>
</g>
<!-- fir::checker -->
<g id="node12" class="node">
<title>fir::checker</title>
<path fill="none" stroke="black" d="M445.12,-252C445.12,-252 390.88,-252 390.88,-252 384.88,-252 378.88,-246 378.88,-240 378.88,-240 378.88,-228 378.88,-228 378.88,-222 384.88,-216 390.88,-216 390.88,-216 445.12,-216 445.12,-216 451.12,-216 457.12,-222 457.12,-228 457.12,-228 457.12,-240 457.12,-240 457.12,-246 451.12,-252 445.12,-252"/>
<text text-anchor="middle" x="418" y="-228.95" font-family="Times,serif" font-size="14.00">fir::checker</text>
</g>
<!-- FirModule&#45;&gt;fir::checker -->
<g id="edge8" class="edge">
<title>FirModule&#45;&gt;fir::checker</title>
<path fill="none" stroke="black" d="M277.17,-212.59C303.36,-216.6 338.93,-222.05 367.64,-226.44"/>
<polygon fill="black" stroke="black" points="366.76,-229.85 377.18,-227.9 367.82,-222.93 366.76,-229.85"/>
</g>
<!-- fir::inliner -->
<g id="node13" class="node">
<title>fir::inliner</title>
<path fill="none" stroke="black" d="M441.75,-198C441.75,-198 394.25,-198 394.25,-198 388.25,-198 382.25,-192 382.25,-186 382.25,-186 382.25,-174 382.25,-174 382.25,-168 388.25,-162 394.25,-162 394.25,-162 441.75,-162 441.75,-162 447.75,-162 453.75,-168 453.75,-174 453.75,-174 453.75,-186 453.75,-186 453.75,-192 447.75,-198 441.75,-198"/>
<text text-anchor="middle" x="418" y="-174.95" font-family="Times,serif" font-size="14.00">fir::inliner</text>
</g>
<!-- FirModule&#45;&gt;fir::inliner -->
<g id="edge9" class="edge">
<title>FirModule&#45;&gt;fir::inliner</title>
<path fill="none" stroke="black" d="M277.17,-201.41C304.34,-197.25 341.6,-191.54 370.83,-187.07"/>
<polygon fill="black" stroke="black" points="371.15,-190.56 380.51,-185.59 370.09,-183.64 371.15,-190.56"/>
</g>
<!-- boxes -->
<g id="node14" class="node">
<title>boxes</title>
<path fill="none" stroke="black" d="M74,-306C74,-306 44,-306 44,-306 38,-306 32,-300 32,-294 32,-294 32,-282 32,-282 32,-276 38,-270 44,-270 44,-270 74,-270 74,-270 80,-270 86,-276 86,-282 86,-282 86,-294 86,-294 86,-300 80,-306 74,-306"/>
<text text-anchor="middle" x="59" y="-282.95" font-family="Times,serif" font-size="14.00">boxes</text>
</g>
<!-- eval -->
<g id="node15" class="node">
<title>eval</title>
<path fill="none" stroke="black" d="M254.62,-306C254.62,-306 224.62,-306 224.62,-306 218.62,-306 212.62,-300 212.62,-294 212.62,-294 212.62,-282 212.62,-282 212.62,-276 218.62,-270 224.62,-270 224.62,-270 254.62,-270 254.62,-270 260.62,-270 266.62,-276 266.62,-282 266.62,-282 266.62,-294 266.62,-294 266.62,-300 260.62,-306 254.62,-306"/>
<text text-anchor="middle" x="239.62" y="-282.95" font-family="Times,serif" font-size="14.00">eval</text>
</g>
<!-- boxes&#45;&gt;eval -->
<g id="edge10" class="edge">
<title>boxes&#45;&gt;eval</title>
<path fill="none" stroke="black" d="M86.36,-288C116.57,-288 166.33,-288 200.7,-288"/>
<polygon fill="black" stroke="black" points="200.65,-291.5 210.65,-288 200.65,-284.5 200.65,-291.5"/>
</g>
<!-- propagate -->
<g id="node16" class="node">
<title>propagate</title>
<path fill="none" stroke="black" d="M440.62,-306C440.62,-306 395.38,-306 395.38,-306 389.38,-306 383.38,-300 383.38,-294 383.38,-294 383.38,-282 383.38,-282 383.38,-276 389.38,-270 395.38,-270 395.38,-270 440.62,-270 440.62,-270 446.62,-270 452.62,-276 452.62,-282 452.62,-282 452.62,-294 452.62,-294 452.62,-300 446.62,-306 440.62,-306"/>
<text text-anchor="middle" x="418" y="-282.95" font-family="Times,serif" font-size="14.00">propagate</text>
</g>
<!-- eval&#45;&gt;propagate -->
<g id="edge11" class="edge">
<title>eval&#45;&gt;propagate</title>
<path fill="none" stroke="black" d="M267.03,-288C294.71,-288 338.71,-288 371.91,-288"/>
<polygon fill="black" stroke="black" points="371.64,-291.5 381.64,-288 371.64,-284.5 371.64,-291.5"/>
</g>
<!-- signals -->
<g id="node17" class="node">
<title>signals</title>
<path fill="none" stroke="black" d="M561.88,-333C561.88,-333 531.88,-333 531.88,-333 525.88,-333 519.88,-327 519.88,-321 519.88,-321 519.88,-309 519.88,-309 519.88,-303 525.88,-297 531.88,-297 531.88,-297 561.88,-297 561.88,-297 567.88,-297 573.88,-303 573.88,-309 573.88,-309 573.88,-321 573.88,-321 573.88,-327 567.88,-333 561.88,-333"/>
<text text-anchor="middle" x="546.88" y="-309.95" font-family="Times,serif" font-size="14.00">signals</text>
</g>
<!-- propagate&#45;&gt;signals -->
<g id="edge12" class="edge">
<title>propagate&#45;&gt;signals</title>
<path fill="none" stroke="black" d="M453,-295.24C470.02,-298.86 490.67,-303.25 508.17,-306.98"/>
<polygon fill="black" stroke="black" points="507.44,-310.4 517.95,-309.06 508.89,-303.55 507.44,-310.4"/>
</g>
<!-- ui -->
<g id="node18" class="node">
<title>ui</title>
<path fill="none" stroke="black" d="M561.88,-279C561.88,-279 531.88,-279 531.88,-279 525.88,-279 519.88,-273 519.88,-267 519.88,-267 519.88,-255 519.88,-255 519.88,-249 525.88,-243 531.88,-243 531.88,-243 561.88,-243 561.88,-243 567.88,-243 573.88,-249 573.88,-255 573.88,-255 573.88,-267 573.88,-267 573.88,-273 567.88,-279 561.88,-279"/>
<text text-anchor="middle" x="546.88" y="-255.95" font-family="Times,serif" font-size="14.00">ui</text>
</g>
<!-- propagate&#45;&gt;ui -->
<g id="edge13" class="edge">
<title>propagate&#45;&gt;ui</title>
<path fill="none" stroke="black" d="M453,-280.76C470.02,-277.14 490.67,-272.75 508.17,-269.02"/>
<polygon fill="black" stroke="black" points="508.89,-272.45 517.95,-266.94 507.44,-265.6 508.89,-272.45"/>
</g>
<!-- transform -->
<g id="node19" class="node">
<title>transform</title>
<path fill="none" stroke="black" d="M676.25,-333C676.25,-333 631,-333 631,-333 625,-333 619,-327 619,-321 619,-321 619,-309 619,-309 619,-303 625,-297 631,-297 631,-297 676.25,-297 676.25,-297 682.25,-297 688.25,-303 688.25,-309 688.25,-309 688.25,-321 688.25,-321 688.25,-327 682.25,-333 676.25,-333"/>
<text text-anchor="middle" x="653.62" y="-309.95" font-family="Times,serif" font-size="14.00">transform</text>
</g>
<!-- signals&#45;&gt;transform -->
<g id="edge14" class="edge">
<title>signals&#45;&gt;transform</title>
<path fill="none" stroke="black" d="M574.31,-315C584.29,-315 595.96,-315 607.2,-315"/>
<polygon fill="black" stroke="black" points="607.15,-318.5 617.15,-315 607.15,-311.5 607.15,-318.5"/>
</g>
<!-- fir -->
<g id="node20" class="node">
<title>fir</title>
<path fill="none" stroke="black" d="M766.25,-333C766.25,-333 736.25,-333 736.25,-333 730.25,-333 724.25,-327 724.25,-321 724.25,-321 724.25,-309 724.25,-309 724.25,-303 730.25,-297 736.25,-297 736.25,-297 766.25,-297 766.25,-297 772.25,-297 778.25,-303 778.25,-309 778.25,-309 778.25,-321 778.25,-321 778.25,-327 772.25,-333 766.25,-333"/>
<text text-anchor="middle" x="751.25" y="-309.95" font-family="Times,serif" font-size="14.00">fir</text>
</g>
<!-- transform&#45;&gt;fir -->
<g id="edge15" class="edge">
<title>transform&#45;&gt;fir</title>
<path fill="none" stroke="black" d="M688.61,-315C696.31,-315 704.53,-315 712.38,-315"/>
<polygon fill="black" stroke="black" points="712.38,-318.5 722.38,-315 712.38,-311.5 712.38,-318.5"/>
</g>
<!-- codegen -->
<g id="node21" class="node">
<title>codegen</title>
<path fill="none" stroke="black" d="M863.25,-333C863.25,-333 826.25,-333 826.25,-333 820.25,-333 814.25,-327 814.25,-321 814.25,-321 814.25,-309 814.25,-309 814.25,-303 820.25,-297 826.25,-297 826.25,-297 863.25,-297 863.25,-297 869.25,-297 875.25,-303 875.25,-309 875.25,-309 875.25,-321 875.25,-321 875.25,-327 869.25,-333 863.25,-333"/>
<text text-anchor="middle" x="844.75" y="-309.95" font-family="Times,serif" font-size="14.00">codegen</text>
</g>
<!-- fir&#45;&gt;codegen -->
<g id="edge16" class="edge">
<title>fir&#45;&gt;codegen</title>
<path fill="none" stroke="black" d="M778.72,-315C786.09,-315 794.29,-315 802.3,-315"/>
<polygon fill="black" stroke="black" points="802.29,-318.5 812.29,-315 802.29,-311.5 802.29,-318.5"/>
</g>
</g>
</svg>
