<?xml version="1.0" encoding="UTF-8" standalone="no"?>
<!DOCTYPE svg PUBLIC "-//W3C//DTD SVG 1.1//EN"
 "http://www.w3.org/Graphics/SVG/1.1/DTD/svg11.dtd">
<!-- Generated by graphviz version 12.2.1 (20241206.2353)
 -->
<!-- Title: workspace_crates Pages: 1 -->
<svg width="87pt" height="1448pt"
 viewBox="0.00 0.00 87.00 1448.00" xmlns="http://www.w3.org/2000/svg" xmlns:xlink="http://www.w3.org/1999/xlink">
<g id="graph0" class="graph" transform="scale(1 1) rotate(0) translate(4 1444)">
<title>workspace_crates</title>
<polygon fill="white" stroke="none" points="-4,4 -4,-1444 83,-1444 83,4 -4,4"/>
<!-- algebra -->
<g id="node1" class="node">
<title>algebra</title>
<path fill="none" stroke="black" d="M55.38,-36C55.38,-36 23.62,-36 23.62,-36 17.62,-36 11.62,-30 11.62,-24 11.62,-24 11.62,-12 11.62,-12 11.62,-6 17.62,0 23.62,0 23.62,0 55.38,0 55.38,0 61.38,0 67.38,-6 67.38,-12 67.38,-12 67.38,-24 67.38,-24 67.38,-30 61.38,-36 55.38,-36"/>
<text text-anchor="middle" x="39.5" y="-12.95" font-family="Times,serif" font-size="14.00">algebra</text>
</g>
<!-- box&#45;ffi -->
<g id="node2" class="node">
<title>box&#45;ffi</title>
<path fill="none" stroke="black" d="M54.5,-90C54.5,-90 24.5,-90 24.5,-90 18.5,-90 12.5,-84 12.5,-78 12.5,-78 12.5,-66 12.5,-66 12.5,-60 18.5,-54 24.5,-54 24.5,-54 54.5,-54 54.5,-54 60.5,-54 66.5,-60 66.5,-66 66.5,-66 66.5,-78 66.5,-78 66.5,-84 60.5,-90 54.5,-90"/>
<text text-anchor="middle" x="39.5" y="-66.95" font-family="Times,serif" font-size="14.00">box&#45;ffi</text>
</g>
<!-- boxes -->
<g id="node3" class="node">
<title>boxes</title>
<path fill="none" stroke="black" d="M54.5,-144C54.5,-144 24.5,-144 24.5,-144 18.5,-144 12.5,-138 12.5,-132 12.5,-132 12.5,-120 12.5,-120 12.5,-114 18.5,-108 24.5,-108 24.5,-108 54.5,-108 54.5,-108 60.5,-108 66.5,-114 66.5,-120 66.5,-120 66.5,-132 66.5,-132 66.5,-138 60.5,-144 54.5,-144"/>
<text text-anchor="middle" x="39.5" y="-120.95" font-family="Times,serif" font-size="14.00">boxes</text>
</g>
<!-- codegen -->
<g id="node4" class="node">
<title>codegen</title>
<path fill="none" stroke="black" d="M58,-198C58,-198 21,-198 21,-198 15,-198 9,-192 9,-186 9,-186 9,-174 9,-174 9,-168 15,-162 21,-162 21,-162 58,-162 58,-162 64,-162 70,-168 70,-174 70,-174 70,-186 70,-186 70,-192 64,-198 58,-198"/>
<text text-anchor="middle" x="39.5" y="-174.95" font-family="Times,serif" font-size="14.00">codegen</text>
</g>
<!-- compiler -->
<g id="node5" class="node">
<title>compiler</title>
<path fill="none" stroke="black" d="M59.88,-252C59.88,-252 19.12,-252 19.12,-252 13.12,-252 7.12,-246 7.12,-240 7.12,-240 7.12,-228 7.12,-228 7.12,-222 13.12,-216 19.12,-216 19.12,-216 59.88,-216 59.88,-216 65.88,-216 71.88,-222 71.88,-228 71.88,-228 71.88,-240 71.88,-240 71.88,-246 65.88,-252 59.88,-252"/>
<text text-anchor="middle" x="39.5" y="-228.95" font-family="Times,serif" font-size="14.00">compiler</text>
</g>
<!-- cranelift&#45;ffi -->
<g id="node6" class="node">
<title>cranelift&#45;ffi</title>
<path fill="none" stroke="black" d="M66.62,-306C66.62,-306 12.38,-306 12.38,-306 6.38,-306 0.38,-300 0.38,-294 0.38,-294 0.38,-282 0.38,-282 0.38,-276 6.38,-270 12.38,-270 12.38,-270 66.62,-270 66.62,-270 72.62,-270 78.62,-276 78.62,-282 78.62,-282 78.62,-294 78.62,-294 78.62,-300 72.62,-306 66.62,-306"/>
<text text-anchor="middle" x="39.5" y="-282.95" font-family="Times,serif" font-size="14.00">cranelift&#45;ffi</text>
</g>
<!-- doc -->
<g id="node7" class="node">
<title>doc</title>
<path fill="none" stroke="black" d="M54.5,-360C54.5,-360 24.5,-360 24.5,-360 18.5,-360 12.5,-354 12.5,-348 12.5,-348 12.5,-336 12.5,-336 12.5,-330 18.5,-324 24.5,-324 24.5,-324 54.5,-324 54.5,-324 60.5,-324 66.5,-330 66.5,-336 66.5,-336 66.5,-348 66.5,-348 66.5,-354 60.5,-360 54.5,-360"/>
<text text-anchor="middle" x="39.5" y="-336.95" font-family="Times,serif" font-size="14.00">doc</text>
</g>
<!-- draw -->
<g id="node8" class="node">
<title>draw</title>
<path fill="none" stroke="black" d="M54.5,-414C54.5,-414 24.5,-414 24.5,-414 18.5,-414 12.5,-408 12.5,-402 12.5,-402 12.5,-390 12.5,-390 12.5,-384 18.5,-378 24.5,-378 24.5,-378 54.5,-378 54.5,-378 60.5,-378 66.5,-384 66.5,-390 66.5,-390 66.5,-402 66.5,-402 66.5,-408 60.5,-414 54.5,-414"/>
<text text-anchor="middle" x="39.5" y="-390.95" font-family="Times,serif" font-size="14.00">draw</text>
</g>
<!-- errors -->
<g id="node9" class="node">
<title>errors</title>
<path fill="none" stroke="black" d="M54.5,-468C54.5,-468 24.5,-468 24.5,-468 18.5,-468 12.5,-462 12.5,-456 12.5,-456 12.5,-444 12.5,-444 12.5,-438 18.5,-432 24.5,-432 24.5,-432 54.5,-432 54.5,-432 60.5,-432 66.5,-438 66.5,-444 66.5,-444 66.5,-456 66.5,-456 66.5,-462 60.5,-468 54.5,-468"/>
<text text-anchor="middle" x="39.5" y="-444.95" font-family="Times,serif" font-size="14.00">errors</text>
</g>
<!-- eval -->
<g id="node10" class="node">
<title>eval</title>
<path fill="none" stroke="black" d="M54.5,-522C54.5,-522 24.5,-522 24.5,-522 18.5,-522 12.5,-516 12.5,-510 12.5,-510 12.5,-498 12.5,-498 12.5,-492 18.5,-486 24.5,-486 24.5,-486 54.5,-486 54.5,-486 60.5,-486 66.5,-492 66.5,-498 66.5,-498 66.5,-510 66.5,-510 66.5,-516 60.5,-522 54.5,-522"/>
<text text-anchor="middle" x="39.5" y="-498.95" font-family="Times,serif" font-size="14.00">eval</text>
</g>
<!-- faust&#45;ffi -->
<g id="node11" class="node">
<title>faust&#45;ffi</title>
<path fill="none" stroke="black" d="M57.25,-576C57.25,-576 21.75,-576 21.75,-576 15.75,-576 9.75,-570 9.75,-564 9.75,-564 9.75,-552 9.75,-552 9.75,-546 15.75,-540 21.75,-540 21.75,-540 57.25,-540 57.25,-540 63.25,-540 69.25,-546 69.25,-552 69.25,-552 69.25,-564 69.25,-564 69.25,-570 63.25,-576 57.25,-576"/>
<text text-anchor="middle" x="39.5" y="-552.95" font-family="Times,serif" font-size="14.00">faust&#45;ffi</text>
</g>
<!-- fir -->
<g id="node12" class="node">
<title>fir</title>
<path fill="none" stroke="black" d="M54.5,-630C54.5,-630 24.5,-630 24.5,-630 18.5,-630 12.5,-624 12.5,-618 12.5,-618 12.5,-606 12.5,-606 12.5,-600 18.5,-594 24.5,-594 24.5,-594 54.5,-594 54.5,-594 60.5,-594 66.5,-600 66.5,-606 66.5,-606 66.5,-618 66.5,-618 66.5,-624 60.5,-630 54.5,-630"/>
<text text-anchor="middle" x="39.5" y="-606.95" font-family="Times,serif" font-size="14.00">fir</text>
</g>
<!-- foreign&#45;call -->
<g id="node13" class="node">
<title>foreign&#45;call</title>
<path fill="none" stroke="black" d="M67,-684C67,-684 12,-684 12,-684 6,-684 0,-678 0,-672 0,-672 0,-660 0,-660 0,-654 6,-648 12,-648 12,-648 67,-648 67,-648 73,-648 79,-654 79,-660 79,-660 79,-672 79,-672 79,-678 73,-684 67,-684"/>
<text text-anchor="middle" x="39.5" y="-660.95" font-family="Times,serif" font-size="14.00">foreign&#45;call</text>
</g>
<!-- graph -->
<g id="node14" class="node">
<title>graph</title>
<path fill="none" stroke="black" d="M54.5,-738C54.5,-738 24.5,-738 24.5,-738 18.5,-738 12.5,-732 12.5,-726 12.5,-726 12.5,-714 12.5,-714 12.5,-708 18.5,-702 24.5,-702 24.5,-702 54.5,-702 54.5,-702 60.5,-702 66.5,-708 66.5,-714 66.5,-714 66.5,-726 66.5,-726 66.5,-732 60.5,-738 54.5,-738"/>
<text text-anchor="middle" x="39.5" y="-714.95" font-family="Times,serif" font-size="14.00">graph</text>
</g>
<!-- interp&#45;ffi -->
<g id="node15" class="node">
<title>interp&#45;ffi</title>
<path fill="none" stroke="black" d="M59.88,-792C59.88,-792 19.12,-792 19.12,-792 13.12,-792 7.12,-786 7.12,-780 7.12,-780 7.12,-768 7.12,-768 7.12,-762 13.12,-756 19.12,-756 19.12,-756 59.88,-756 59.88,-756 65.88,-756 71.88,-762 71.88,-768 71.88,-768 71.88,-780 71.88,-780 71.88,-786 65.88,-792 59.88,-792"/>
<text text-anchor="middle" x="39.5" y="-768.95" font-family="Times,serif" font-size="14.00">interp&#45;ffi</text>
</g>
<!-- interval -->
<g id="node16" class="node">
<title>interval</title>
<path fill="none" stroke="black" d="M56.12,-846C56.12,-846 22.88,-846 22.88,-846 16.88,-846 10.88,-840 10.88,-834 10.88,-834 10.88,-822 10.88,-822 10.88,-816 16.88,-810 22.88,-810 22.88,-810 56.12,-810 56.12,-810 62.12,-810 68.12,-816 68.12,-822 68.12,-822 68.12,-834 68.12,-834 68.12,-840 62.12,-846 56.12,-846"/>
<text text-anchor="middle" x="39.5" y="-822.95" font-family="Times,serif" font-size="14.00">interval</text>
</g>
<!-- normalize -->
<g id="node17" class="node">
<title>normalize</title>
<path fill="none" stroke="black" d="M62.88,-900C62.88,-900 16.12,-900 16.12,-900 10.12,-900 4.12,-894 4.12,-888 4.12,-888 4.12,-876 4.12,-876 4.12,-870 10.12,-864 16.12,-864 16.12,-864 62.88,-864 62.88,-864 68.88,-864 74.88,-870 74.88,-876 74.88,-876 74.88,-888 74.88,-888 74.88,-894 68.88,-900 62.88,-900"/>
<text text-anchor="middle" x="39.5" y="-876.95" font-family="Times,serif" font-size="14.00">normalize</text>
</g>
<!-- parser -->
<g id="node18" class="node">
<title>parser</title>
<path fill="none" stroke="black" d="M54.5,-954C54.5,-954 24.5,-954 24.5,-954 18.5,-954 12.5,-948 12.5,-942 12.5,-942 12.5,-930 12.5,-930 12.5,-924 18.5,-918 24.5,-918 24.5,-918 54.5,-918 54.5,-918 60.5,-918 66.5,-924 66.5,-930 66.5,-930 66.5,-942 66.5,-942 66.5,-948 60.5,-954 54.5,-954"/>
<text text-anchor="middle" x="39.5" y="-930.95" font-family="Times,serif" font-size="14.00">parser</text>
</g>
<!-- propagate -->
<g id="node19" class="node">
<title>propagate</title>
<path fill="none" stroke="black" d="M62.12,-1008C62.12,-1008 16.88,-1008 16.88,-1008 10.88,-1008 4.88,-1002 4.88,-996 4.88,-996 4.88,-984 4.88,-984 4.88,-978 10.88,-972 16.88,-972 16.88,-972 62.12,-972 62.12,-972 68.12,-972 74.12,-978 74.12,-984 74.12,-984 74.12,-996 74.12,-996 74.12,-1002 68.12,-1008 62.12,-1008"/>
<text text-anchor="middle" x="39.5" y="-984.95" font-family="Times,serif" font-size="14.00">propagate</text>
</g>
<!-- signals -->
<g id="node20" class="node">
<title>signals</title>
<path fill="none" stroke="black" d="M54.5,-1062C54.5,-1062 24.5,-1062 24.5,-1062 18.5,-1062 12.5,-1056 12.5,-1050 12.5,-1050 12.5,-1038 12.5,-1038 12.5,-1032 18.5,-1026 24.5,-1026 24.5,-1026 54.5,-1026 54.5,-1026 60.5,-1026 66.5,-1032 66.5,-1038 66.5,-1038 66.5,-1050 66.5,-1050 66.5,-1056 60.5,-1062 54.5,-1062"/>
<text text-anchor="middle" x="39.5" y="-1038.95" font-family="Times,serif" font-size="14.00">signals</text>
</g>
<!-- sigtype -->
<g id="node21" class="node">
<title>sigtype</title>
<path fill="none" stroke="black" d="M55,-1116C55,-1116 24,-1116 24,-1116 18,-1116 12,-1110 12,-1104 12,-1104 12,-1092 12,-1092 12,-1086 18,-1080 24,-1080 24,-1080 55,-1080 55,-1080 61,-1080 67,-1086 67,-1092 67,-1092 67,-1104 67,-1104 67,-1110 61,-1116 55,-1116"/>
<text text-anchor="middle" x="39.5" y="-1092.95" font-family="Times,serif" font-size="14.00">sigtype</text>
</g>
<!-- tlib -->
<g id="node22" class="node">
<title>tlib</title>
<path fill="none" stroke="black" d="M54.5,-1170C54.5,-1170 24.5,-1170 24.5,-1170 18.5,-1170 12.5,-1164 12.5,-1158 12.5,-1158 12.5,-1146 12.5,-1146 12.5,-1140 18.5,-1134 24.5,-1134 24.5,-1134 54.5,-1134 54.5,-1134 60.5,-1134 66.5,-1140 66.5,-1146 66.5,-1146 66.5,-1158 66.5,-1158 66.5,-1164 60.5,-1170 54.5,-1170"/>
<text text-anchor="middle" x="39.5" y="-1146.95" font-family="Times,serif" font-size="14.00">tlib</text>
</g>
<!-- transform -->
<g id="node23" class="node">
<title>transform</title>
<path fill="none" stroke="black" d="M62.12,-1224C62.12,-1224 16.88,-1224 16.88,-1224 10.88,-1224 4.88,-1218 4.88,-1212 4.88,-1212 4.88,-1200 4.88,-1200 4.88,-1194 10.88,-1188 16.88,-1188 16.88,-1188 62.12,-1188 62.12,-1188 68.12,-1188 74.12,-1194 74.12,-1200 74.12,-1200 74.12,-1212 74.12,-1212 74.12,-1218 68.12,-1224 62.12,-1224"/>
<text text-anchor="middle" x="39.5" y="-1200.95" font-family="Times,serif" font-size="14.00">transform</text>
</g>
<!-- ui -->
<g id="node24" class="node">
<title>ui</title>
<path fill="none" stroke="black" d="M54.5,-1278C54.5,-1278 24.5,-1278 24.5,-1278 18.5,-1278 12.5,-1272 12.5,-1266 12.5,-1266 12.5,-1254 12.5,-1254 12.5,-1248 18.5,-1242 24.5,-1242 24.5,-1242 54.5,-1242 54.5,-1242 60.5,-1242 66.5,-1248 66.5,-1254 66.5,-1254 66.5,-1266 66.5,-1266 66.5,-1272 60.5,-1278 54.5,-1278"/>
<text text-anchor="middle" x="39.5" y="-1254.95" font-family="Times,serif" font-size="14.00">ui</text>
</g>
<!-- utils -->
<g id="node25" class="node">
<title>utils</title>
<path fill="none" stroke="black" d="M54.5,-1332C54.5,-1332 24.5,-1332 24.5,-1332 18.5,-1332 12.5,-1326 12.5,-1320 12.5,-1320 12.5,-1308 12.5,-1308 12.5,-1302 18.5,-1296 24.5,-1296 24.5,-1296 54.5,-1296 54.5,-1296 60.5,-1296 66.5,-1302 66.5,-1308 66.5,-1308 66.5,-1320 66.5,-1320 66.5,-1326 60.5,-1332 54.5,-1332"/>
<text text-anchor="middle" x="39.5" y="-1308.95" font-family="Times,serif" font-size="14.00">utils</text>
</g>
<!-- wasm&#45;ffi -->
<g id="node26" class="node">
<title>wasm&#45;ffi</title>
<path fill="none" stroke="black" d="M60.25,-1386C60.25,-1386 18.75,-1386 18.75,-1386 12.75,-1386 6.75,-1380 6.75,-1374 6.75,-1374 6.75,-1362 6.75,-1362 6.75,-1356 12.75,-1350 18.75,-1350 18.75,-1350 60.25,-1350 60.25,-1350 66.25,-1350 72.25,-1356 72.25,-1362 72.25,-1362 72.25,-1374 72.25,-1374 72.25,-1380 66.25,-1386 60.25,-1386"/>
<text text-anchor="middle" x="39.5" y="-1362.95" font-family="Times,serif" font-size="14.00">wasm&#45;ffi</text>
</g>
<!-- xtask -->
<g id="node27" class="node">
<title>xtask</title>
<path fill="none" stroke="black" d="M54.5,-1440C54.5,-1440 24.5,-1440 24.5,-1440 18.5,-1440 12.5,-1434 12.5,-1428 12.5,-1428 12.5,-1416 12.5,-1416 12.5,-1410 18.5,-1404 24.5,-1404 24.5,-1404 54.5,-1404 54.5,-1404 60.5,-1404 66.5,-1410 66.5,-1416 66.5,-1416 66.5,-1428 66.5,-1428 66.5,-1434 60.5,-1440 54.5,-1440"/>
<text text-anchor="middle" x="39.5" y="-1416.95" font-family="Times,serif" font-size="14.00">xtask</text>
</g>
</g>
</svg>
